<svg width="76" height="76" viewBox="0 0 76 76" fill="none" xmlns="http://www.w3.org/2000/svg">
<rect x="1" y="1" width="74" height="74" rx="14" stroke="#D3B600" stroke-width="2"/>
<path d="M28.5418 22.1251L28.5418 52.8751C28.5428 53.1864 28.6286 53.4916 28.7901 53.7577C28.9517 54.0239 29.1827 54.241 29.4584 54.3856C29.7341 54.5302 30.044 54.5969 30.3548 54.5785C30.6656 54.56 30.9655 54.4572 31.2222 54.281L53.4305 38.906C54.3513 38.2688 54.3513 36.7348 53.4305 36.0958L31.2222 20.7208C30.966 20.5429 30.666 20.4385 30.3547 20.4191C30.0434 20.3997 29.7327 20.4659 29.4564 20.6107C29.1801 20.7554 28.9488 20.9731 28.7875 21.2401C28.6263 21.5071 28.5413 21.8132 28.5418 22.1251ZM49.4569 37.5001L31.9585 49.6156L31.9585 25.3846L49.4569 37.5001Z" fill="#D3B600"/>
</svg>
