<svg width="197" height="118" viewBox="0 0 197 118" fill="none" xmlns="http://www.w3.org/2000/svg">
<g filter="url(#filter0_d_251_18)">
<path fill-rule="evenodd" clip-rule="evenodd" d="M169.996 75.7188L169.277 55.2607C169.179 49.9892 167.217 44.6519 161.599 44.1506C155.982 43.6492 153.447 44.0493 153.447 44.0493V56.7546C153.264 59.3473 151.603 60.8513 149.836 60.8259L57.4062 61.0032L58.239 82.9653C58.5843 88.5457 61.6105 91.9891 66.091 91.5587L170 75.7188H169.996Z" fill="#B29F2C"/>
</g>
<g filter="url(#filter1_d_251_18)">
<path fill-rule="evenodd" clip-rule="evenodd" d="M22.5859 12C16.7649 12 12 17.9399 12 25.2016V58.4865H149.775C151.615 58.4865 151.696 55.8989 151.696 55.8989V12.0051H22.5859V12Z" fill="white"/>
</g>
<path d="M33.4889 51.2351V36.6966C33.4889 34.2356 32.8836 32.0379 31.6771 30.0984C30.4707 28.1589 28.9027 26.8879 26.9773 26.2802V51.2351H22.0337V19.7731C23.6342 19.7731 25.1493 19.844 26.5751 19.9909C28.0009 20.1377 29.4146 20.6289 30.8038 21.4645C31.2425 21.7531 31.6893 22.0721 32.1443 22.4165C32.5952 22.7659 33.042 23.171 33.4848 23.6318V19.7681H38.4649V51.23H33.4848L33.4889 51.2351Z" fill="#305428"/>
<path d="M64.5399 47.0674C61.9402 50.3083 58.8083 51.9287 55.1402 51.9287C51.4721 51.9287 48.3686 50.3083 45.7567 47.0674C43.1448 43.8265 41.8408 39.9374 41.8408 35.3951C41.8408 30.8528 43.1448 26.9181 45.7567 23.6773C48.3686 20.4364 51.4965 18.8159 55.1402 18.8159C58.7839 18.8159 61.9402 20.4364 64.5399 23.6773C67.1397 26.9181 68.4395 30.8224 68.4395 35.3951C68.4395 39.9678 67.1397 43.8315 64.5399 47.0674ZM61.0424 28.0373C59.4054 25.9965 57.4393 24.9787 55.1402 24.9787C52.841 24.9787 50.879 25.9965 49.2582 28.0373C47.6334 30.078 46.821 32.5289 46.821 35.3951C46.821 38.2613 47.6334 40.7071 49.2582 42.7276C50.8831 44.7532 52.8451 45.7659 55.1402 45.7659C57.4353 45.7659 59.4054 44.7532 61.0424 42.7276C62.6795 40.7021 63.496 38.2562 63.496 35.3951C63.496 32.534 62.6795 30.078 61.0424 28.0373Z" fill="#305428"/>
<path d="M76.6204 27.6018C76.5757 27.9917 76.5514 28.3918 76.5514 28.7969C76.5514 29.8654 76.7179 30.8933 77.0551 31.8757C77.3922 32.8581 77.7578 33.8456 78.1518 34.828C78.1965 34.9444 78.2412 35.0508 78.2737 35.1521C78.3062 35.2533 78.3468 35.3496 78.3956 35.4356C78.4646 35.6078 78.5337 35.7901 78.6027 35.9775C78.6718 36.1648 78.7408 36.3471 78.8099 36.5193C79.0658 37.2131 79.273 37.9169 79.4355 38.6259C79.5979 39.3348 79.7157 40.0539 79.7848 40.773C79.8092 41.0059 79.8254 41.2439 79.8376 41.487C79.8498 41.7351 79.8539 41.9731 79.8539 42.201C79.8295 44.7178 79.2811 47.0826 78.2006 49.2955C77.1201 51.5084 75.6089 53.1947 73.6551 54.3493L71.5306 48.8398C72.5745 48.2017 73.3951 47.2801 73.9841 46.0647C74.5772 44.8494 74.8737 43.5632 74.8737 42.201C74.8737 41.9427 74.8615 41.6895 74.8371 41.4414C74.8128 41.1983 74.7803 40.9401 74.7315 40.6818C74.6868 40.4236 74.6259 40.1704 74.5569 39.9222C74.4878 39.6792 74.4066 39.4209 74.3131 39.1627L72.5705 34.6507C72.3389 34.0127 72.1399 33.3797 71.9774 32.7417C71.8149 32.1036 71.6971 31.4706 71.6281 30.8326C71.6037 30.5135 71.5834 30.1945 71.559 29.8755C71.5346 29.5565 71.5225 29.2374 71.5225 28.9184C71.5225 26.4017 72.0668 24.0368 73.1595 21.8239C74.2522 19.611 75.7592 17.9247 77.6847 16.7701L79.8092 22.3708C79.1146 22.7759 78.5093 23.3329 77.9975 24.0419C77.4856 24.7508 77.1038 25.556 76.8479 26.4523C76.7301 26.827 76.6489 27.2119 76.6042 27.6018H76.6204Z" fill="#305428"/>
<path d="M95.0708 19.7681V25.9308H91.7276V51.23H86.7475V25.9308H83.4409V19.7681H95.0667H95.0708Z" fill="#305428"/>
<path d="M116.064 51.235H109.727L107.745 48.1106C107.444 48.3689 107.123 48.617 106.786 48.8499C106.449 49.0829 106.107 49.2854 105.758 49.4576L103.808 43.7708C105.315 42.9606 106.449 41.7656 107.204 40.1907C107.96 38.6158 108.338 36.9599 108.338 35.223C108.338 33.3696 107.919 31.6276 107.086 29.992C106.25 28.3564 105.011 27.1765 103.362 26.4523V51.235H98.3813V19.7731H100.888C104.67 19.7731 107.688 21.3783 109.938 24.5838C112.188 27.7892 113.314 31.3744 113.314 35.3293C113.314 35.618 113.31 35.9066 113.297 36.1953C113.285 36.4839 113.269 36.7726 113.245 37.0612C113.127 38.2158 112.907 39.3602 112.582 40.4844C112.258 41.6086 111.815 42.6922 111.258 43.7354L116.064 51.235Z" fill="#305428"/>
<path d="M139.49 47.0674C136.89 50.3083 133.758 51.9287 130.09 51.9287C126.422 51.9287 123.318 50.3083 120.706 47.0674C118.094 43.8265 116.791 39.9374 116.791 35.3951C116.791 30.8528 118.094 26.9181 120.706 23.6773C123.318 20.4364 126.446 18.8159 130.09 18.8159C133.734 18.8159 136.89 20.4364 139.49 23.6773C142.089 26.9181 143.389 30.8224 143.389 35.3951C143.389 39.9678 142.089 43.8315 139.49 47.0674ZM135.992 28.0373C134.355 25.9965 132.389 24.9787 130.09 24.9787C127.791 24.9787 125.829 25.9965 124.208 28.0373C122.583 30.078 121.771 32.5289 121.771 35.3951C121.771 38.2613 122.583 40.7071 124.208 42.7276C125.833 44.7532 127.795 45.7659 130.09 45.7659C132.385 45.7659 134.355 44.7532 135.992 42.7276C137.629 40.7021 138.446 38.2562 138.446 35.3951C138.446 32.534 137.629 30.078 135.992 28.0373Z" fill="#305428"/>
<path d="M130.09 48.5259C135.968 48.5259 140.733 42.5859 140.733 35.2585C140.733 27.9311 135.968 21.9911 130.09 21.9911C124.212 21.9911 119.447 27.9311 119.447 35.2585C119.447 42.5859 124.212 48.5259 130.09 48.5259Z" fill="#21391A"/>
<path d="M133.514 28.1234C134.741 28.2855 135.708 28.4019 136.675 28.5488C137.223 28.6349 137.471 28.9944 137.377 29.5261C137.26 30.2047 136.874 30.1794 136.488 30.0933C132.076 29.1109 128.01 30.3718 124.257 33.6025C123.733 34.0532 123.245 34.5748 122.762 35.1015C122.441 35.4458 122.132 35.6129 121.84 35.1268C121.556 34.6457 121.722 34.2406 122.035 33.8912C124.281 31.3947 126.82 29.678 129.655 28.8678C131 28.483 132.381 28.3361 133.51 28.1234H133.514Z" fill="#91993F"/>
<path d="M134.762 35.0812C134.709 36.175 134.55 37.1625 133.722 37.6435C132.873 38.1347 132.109 37.7296 131.488 36.9802C130.435 35.7091 129.883 34.1697 130.24 32.3265C130.574 30.63 131.8 30.068 132.97 31.0402C134.136 32.0125 134.632 33.4557 134.766 35.0863L134.762 35.0812Z" fill="#B29F2C"/>
<path d="M126.69 16.8513C130.049 19.0237 131.491 22.7558 130.561 27.2221C129.883 25.5814 129.249 24.042 128.615 22.5076C128.571 22.5279 128.522 22.5532 128.477 22.5735C128.912 24.2142 129.343 25.8599 129.789 27.5411C126.991 26.4575 125.325 20.6947 126.69 16.8462V16.8513Z" fill="#91993F"/>
<path d="M131.061 27.6525C131.52 25.8498 131.93 24.2597 132.336 22.6646C132.3 22.6393 132.259 22.614 132.222 22.5886C131.991 23.1001 131.763 23.6166 131.507 24.1838C131.26 23.1001 131.012 22.0974 130.805 21.0796C130.768 20.8922 130.825 20.6289 130.914 20.4567C131.719 18.9021 132.791 17.7121 134.107 16.8462C135.399 20.3605 134.489 25.2421 131.061 27.6525Z" fill="#91993F"/>
<path d="M129.838 32.2404C129.635 33.9013 129.96 35.4154 130.797 36.7624C130.874 36.889 130.886 37.1625 130.833 37.3195C130.427 38.5905 129.172 38.9197 128.404 37.9727C127.364 36.6915 127.324 33.9722 128.323 32.6607C128.749 32.0986 129.188 31.9669 129.834 32.2404H129.838Z" fill="#B29F2C"/>
<path d="M125.398 43.5076C125.203 43.5076 125.036 43.4519 124.91 43.3506C124.756 43.224 124.642 43.0164 124.573 42.7328L124.541 42.6062L124.488 42.7176C124.415 42.8695 124.317 42.9911 124.196 43.0822C124.074 43.1734 123.915 43.2291 123.732 43.2493C123.688 43.2493 123.643 43.2544 123.602 43.2544C123.387 43.2544 123.221 43.1886 123.107 43.0518C122.973 42.8898 122.904 42.6569 122.904 42.353C122.904 42.1707 122.936 41.9884 123.001 41.8061C123.066 41.6289 123.176 41.4517 123.33 41.2795C123.485 41.1073 123.7 40.9453 123.968 40.7984L124.46 40.53L124.488 40.1958L124.569 40.0844L125.211 40.0135L125.256 41.6643C125.256 41.8973 125.284 42.0492 125.341 42.1252C125.39 42.191 125.471 42.2214 125.589 42.2214H125.674L125.755 42.2315V43.3354C125.755 43.4266 125.727 43.4671 125.654 43.4722L125.532 43.4873C125.483 43.4924 125.439 43.4975 125.394 43.4975L125.398 43.5076ZM124.094 41.5428C123.984 41.5935 123.899 41.6542 123.838 41.7251C123.769 41.8011 123.732 41.8872 123.732 41.9783C123.732 42.0695 123.761 42.1505 123.818 42.2011C123.862 42.2416 123.919 42.2619 123.988 42.2619C124.11 42.2518 124.187 42.2214 124.256 42.1707C124.326 42.1201 124.382 42.0492 124.427 41.9631C124.472 41.872 124.492 41.7606 124.492 41.6289V41.3554L124.09 41.5428H124.094ZM124.484 39.5628C124.484 39.5628 124.447 39.5527 124.435 39.5375L124.143 39.2033V39.0514L124.439 38.6564L124.561 38.6412L124.845 38.9653L125.199 38.5754L125.317 38.5602L125.609 38.8944V39.0514L125.321 39.4464L125.199 39.4565L124.915 39.1375L124.561 39.5274L124.488 39.5628H124.484Z" fill="white"/>
<path d="M125.642 43.4822V42.358C125.642 42.3175 125.646 42.2871 125.666 42.2618L125.751 42.2213C125.849 42.2112 125.926 42.1707 125.979 42.0998C126.036 42.0289 126.06 41.9175 126.06 41.7706C126.06 41.7352 126.06 41.6947 126.052 41.6491L126.036 41.5225L125.958 41.0515C125.946 40.9807 125.95 40.93 125.971 40.8996C125.991 40.8642 126.023 40.8389 126.072 40.8237L126.6 40.6262C126.621 40.6262 126.641 40.6262 126.657 40.6262C126.726 40.6262 126.759 40.6566 126.775 40.7578L126.885 41.4516C126.901 41.5478 126.913 41.639 126.921 41.7301C126.929 41.8213 126.933 41.9124 126.933 41.9985C126.933 42.4036 126.848 42.7378 126.682 43.0062C126.519 43.2695 126.267 43.4214 125.934 43.4569L125.658 43.4873H125.646L125.642 43.4822ZM126.32 40.1502C126.296 40.1502 126.279 40.14 126.263 40.1249L125.95 39.7704V39.6083L126.263 39.188L126.344 39.1425L126.694 39.5222C126.755 39.5931 126.742 39.6438 126.706 39.6894L126.393 40.1097L126.32 40.1451V40.1502Z" fill="white"/>
<path d="M127.77 44.6924C127.701 44.6924 127.644 44.6873 127.6 44.6671C127.567 44.6569 127.522 44.6215 127.522 44.4797V43.791C127.522 43.7049 127.539 43.6442 127.571 43.6087C127.596 43.5834 127.652 43.5479 127.774 43.5327L128.432 43.4619C128.583 43.4467 128.709 43.4112 128.814 43.3656C128.92 43.3201 129.009 43.239 129.074 43.1378L129.143 43.0314L128.591 43.0922C128.546 43.0973 128.497 43.1023 128.457 43.1023C128.298 43.1023 128.16 43.0669 128.042 43.001C127.892 42.9149 127.778 42.7884 127.697 42.6212C127.62 42.4491 127.579 42.2465 127.579 42.0186C127.579 41.8363 127.604 41.649 127.652 41.4667C127.697 41.2844 127.77 41.1173 127.864 40.9654C127.957 40.8185 128.071 40.6919 128.205 40.5906C128.339 40.4944 128.497 40.4336 128.672 40.4134C128.713 40.4134 128.753 40.4083 128.794 40.4083C129.058 40.4083 129.277 40.5096 129.456 40.7122C129.659 40.9451 129.781 41.2894 129.813 41.7351L130.098 41.7604L130.122 42.8896C130.122 42.9808 130.094 43.0162 130.021 43.0264L129.761 43.0567C129.623 43.5581 129.46 43.9227 129.237 44.1809C129.013 44.4392 128.721 44.5911 128.359 44.6316L127.921 44.6822C127.868 44.6873 127.815 44.6924 127.77 44.6924ZM128.554 41.411C128.489 41.416 128.436 41.4363 128.384 41.4717C128.331 41.5072 128.294 41.5477 128.266 41.5983C128.237 41.654 128.221 41.7097 128.221 41.7705C128.221 41.9123 128.286 41.9731 128.343 41.9933C128.392 42.0136 128.449 42.0237 128.51 42.0237L129.07 41.9579C129.054 41.6996 128.969 41.568 128.863 41.4971C128.77 41.4363 128.68 41.4059 128.595 41.4059H128.554V41.411Z" fill="white"/>
<path d="M130.005 43.0264L130 41.9022L130.102 41.7655L131.54 41.6085L131.56 42.7327L131.459 42.8694L130.017 43.0315L130.005 43.0264Z" fill="white"/>
<path d="M131.442 42.8695L131.438 41.7453L131.54 41.6086L132.973 41.4465L132.998 42.5758L132.896 42.7125L131.454 42.8695H131.442Z" fill="white"/>
<path d="M132.876 42.7124V41.5883C132.876 41.4971 132.905 41.4566 132.974 41.4515C133.112 41.4363 133.197 41.3806 133.242 41.2895C133.283 41.2034 133.303 41.0768 133.303 40.8996V40.3628C133.303 40.2362 133.352 40.2159 133.405 40.2109L133.985 40.1501C134.034 40.1501 134.071 40.1653 134.071 40.2716V40.8084C134.071 41.0008 134.103 41.1274 134.168 41.1983C134.221 41.2591 134.302 41.2895 134.408 41.2895H134.505L134.526 42.4137C134.526 42.5048 134.497 42.5403 134.424 42.5504C134.388 42.5504 134.351 42.5555 134.314 42.5555C134.193 42.5555 134.075 42.5301 133.965 42.4846C133.831 42.4238 133.721 42.3073 133.64 42.1352L133.595 42.0339L133.559 42.1402C133.486 42.3478 133.392 42.4896 133.279 42.5706C133.157 42.6567 133.031 42.7023 132.897 42.7175H132.889H132.876V42.7124ZM133.299 39.6792C133.299 39.6792 133.266 39.669 133.25 39.6538L132.958 39.3196V39.1677L133.254 38.7727L133.376 38.7575L133.66 39.0816L134.014 38.6917L134.132 38.6765L134.424 39.0107V39.1677L134.136 39.5627L134.014 39.5728L133.729 39.2538L133.376 39.6437L133.303 39.6792H133.299Z" fill="white"/>
<path d="M134.603 43.8063C134.582 43.8063 134.562 43.8012 134.546 43.786L134.27 43.472V43.3353L134.55 42.9606L134.659 42.9454L134.907 43.234L135.228 42.8897L135.33 42.8745L135.606 43.1885V43.3303L135.33 43.705L135.224 43.7151L134.972 43.4366L134.655 43.7809L134.599 43.8113L134.603 43.8063ZM134.412 42.5403V41.4161C134.412 41.325 134.436 41.2844 134.509 41.2794C134.696 41.2591 134.814 41.2034 134.879 41.1072C134.944 41.011 134.972 40.8641 134.972 40.6616C134.972 40.5502 134.964 40.4286 134.948 40.302L134.911 39.9881C134.911 39.9577 134.903 39.902 134.924 39.8817C134.948 39.8564 134.976 39.8412 135.005 39.8311L135.521 39.6488H135.614C135.638 39.6741 135.655 39.7096 135.663 39.7551C135.675 39.8109 135.691 39.8868 135.703 39.9932C135.72 40.0995 135.732 40.2058 135.74 40.3172C135.752 40.4236 135.756 40.5097 135.756 40.5755C135.756 40.9553 135.712 41.2946 135.618 41.5781C135.529 41.8567 135.383 42.0845 135.188 42.2516C134.993 42.4188 134.733 42.515 134.42 42.5453H134.412H134.4L134.412 42.5403Z" fill="white"/>
<path d="M135.936 43.8467C135.899 43.8467 135.875 43.8366 135.862 43.8163C135.842 43.791 135.834 43.7505 135.834 43.6999V42.9049C135.834 42.839 135.854 42.8086 135.871 42.7934C135.903 42.7631 135.94 42.7479 135.992 42.7428C136.248 42.7124 136.407 42.6567 136.529 42.5706C136.65 42.4795 136.74 42.3579 136.793 42.201C136.845 42.0491 136.87 41.8718 136.87 41.6642C136.87 41.4718 136.85 41.254 136.813 41.0008C136.776 40.7527 136.728 40.5096 136.675 40.2716C136.659 40.1653 136.671 40.1197 136.683 40.0995C136.703 40.064 136.74 40.0387 136.797 40.0134L137.329 39.7956L137.43 39.7855C137.43 39.7855 137.463 39.8209 137.479 39.8969C137.54 40.1704 137.593 40.459 137.638 40.773C137.682 41.0819 137.703 41.3908 137.703 41.6845C137.703 42.0693 137.642 42.4187 137.516 42.7226C137.394 43.0264 137.215 43.2796 136.984 43.472C136.752 43.6644 136.468 43.7758 136.143 43.8163L135.944 43.8366L135.936 43.8467ZM136.91 39.35C136.886 39.35 136.87 39.3449 136.854 39.3247L136.541 38.9702V38.8082L136.854 38.3879L136.931 38.3423L137.28 38.7221C137.341 38.793 137.329 38.8385 137.292 38.8892L136.979 39.3095L136.906 39.3449L136.91 39.35Z" fill="white"/>
<path d="M65.7056 76.4532C65.7462 76.4937 65.795 76.5139 65.8478 76.5139C65.9006 76.5139 65.9453 76.4836 65.9778 76.4329L66.3596 75.8658C66.4449 75.7493 66.4327 75.6328 66.323 75.5164L65.864 75.0302C65.8234 74.9897 65.7787 74.9695 65.73 74.9745C65.6812 74.9796 65.6365 75.01 65.604 75.0606L65.2263 75.643C65.1856 75.6936 65.1694 75.7493 65.1735 75.8151C65.1775 75.8759 65.2019 75.9316 65.2506 75.9822L65.7056 76.4532Z" fill="white"/>
<path d="M68.7394 77.8509C68.65 77.4812 68.5444 77.0964 68.4225 76.7065C68.3819 76.5799 68.3372 76.4988 68.2844 76.4735C68.2316 76.4431 68.1625 76.4482 68.0772 76.4887L67.5492 76.7368C67.3908 76.8077 67.342 76.9394 67.3989 77.1268C67.5085 77.4914 67.5979 77.8256 67.6792 78.1294C67.7563 78.4383 67.8051 78.7118 67.8254 78.9498C67.8701 79.4612 67.8254 79.8815 67.6954 80.2107C67.5654 80.5398 67.3704 80.793 67.1145 80.9652C66.8545 81.1424 66.5539 81.2437 66.2046 81.2842C65.6968 81.3399 65.2825 81.2184 64.9616 80.9095C64.6407 80.6006 64.462 80.1499 64.4173 79.5473C64.4051 79.3599 64.4051 79.1422 64.4173 78.889C64.4335 78.6358 64.4701 78.3927 64.527 78.1699C64.5513 78.0737 64.5554 77.9977 64.5351 77.942C64.5148 77.8863 64.4498 77.8458 64.336 77.8205L63.877 77.7192C63.7958 77.699 63.7308 77.7192 63.6902 77.7749C63.6495 77.8357 63.6049 77.942 63.5602 78.1041C63.5033 78.3471 63.4586 78.6307 63.4261 78.97C63.3936 79.3042 63.3896 79.6131 63.4099 79.9018C63.4586 80.5449 63.6049 81.0918 63.8526 81.5475C64.1004 82.0033 64.4295 82.3375 64.8397 82.5502C65.25 82.7629 65.7253 82.8439 66.2655 82.7781C66.6921 82.7274 67.078 82.6059 67.4192 82.4033C67.7604 82.2008 68.0488 81.9324 68.2885 81.5982C68.5281 81.264 68.6987 80.8791 68.8084 80.4385C68.9181 80.003 68.9506 79.522 68.914 79.0055C68.8856 78.6105 68.8247 78.2256 68.7353 77.856L68.7394 77.8509Z" fill="white"/>
<path d="M76.2263 74.7568C76.2669 74.7973 76.3116 74.8175 76.3644 74.8226C76.4131 74.8226 76.4578 74.7973 76.4903 74.7365L76.8518 74.1947C76.8925 74.1339 76.9087 74.0731 76.9047 74.0073C76.9006 73.9415 76.8762 73.8858 76.8275 73.8453L76.3806 73.3946C76.3319 73.344 76.2872 73.3237 76.2425 73.3288C76.1978 73.3338 76.1613 73.3642 76.1288 73.425L75.747 73.9719C75.7145 74.0225 75.6982 74.0833 75.7023 74.1491C75.7063 74.2149 75.7307 74.2656 75.7713 74.3112L76.2263 74.7618V74.7568Z" fill="white"/>
<path d="M74.8124 74.9189C74.8612 74.9644 74.9058 74.9898 74.9587 74.9847C75.0074 74.9796 75.048 74.9493 75.0765 74.9037L75.4583 74.3568C75.4989 74.296 75.5111 74.2352 75.507 74.1694C75.4989 74.1036 75.4705 74.0479 75.4258 74.0074L74.979 73.5567C74.9424 73.506 74.9018 73.4807 74.853 73.4908C74.8043 73.4959 74.7596 73.5263 74.719 73.5871L74.3534 74.1289C74.3209 74.1846 74.3047 74.2454 74.3087 74.3011C74.3128 74.3618 74.3372 74.4125 74.3778 74.4631L74.8124 74.9189Z" fill="white"/>
<path d="M78.7491 79.4004C79.0497 79.132 79.2446 78.7775 79.3421 78.3319C79.4396 77.8863 79.4518 77.3697 79.3828 76.7773C79.3665 76.6152 79.3381 76.443 79.3015 76.2658C79.2649 76.0886 79.2324 75.9164 79.1959 75.7594C79.1593 75.6024 79.1228 75.4657 79.0903 75.3492C79.0659 75.2429 79.0253 75.1568 78.9725 75.0961C78.9197 75.0302 78.8506 75.015 78.7572 75.0505L78.2372 75.248C78.1722 75.2733 78.1235 75.3138 78.091 75.3695C78.0626 75.4252 78.0626 75.5214 78.0991 75.648C78.1397 75.8455 78.1844 76.0531 78.2372 76.2658C78.29 76.4785 78.3307 76.6811 78.3591 76.8836C78.416 77.3039 78.3916 77.6432 78.286 77.8913C78.1804 78.1394 77.9488 78.2863 77.5914 78.3268L77.506 78.3369L77.3761 78.3521C77.0673 78.3876 76.8236 78.3319 76.653 78.1901C76.4783 78.0483 76.3768 77.7445 76.3443 77.2887L76.263 76.1645C76.2468 75.962 76.1656 75.8708 76.0193 75.886L75.4628 75.9518C75.3125 75.967 75.2475 76.0784 75.2638 76.281L75.345 77.4052C75.3775 77.8508 75.3328 78.1698 75.211 78.3471C75.0891 78.5294 74.8941 78.6357 74.6301 78.6661L74.5366 78.6762L73.8583 78.7522C73.7608 77.8255 73.5414 77.1419 73.2002 76.6962C72.859 76.2455 72.404 76.0582 71.8272 76.124C71.5469 76.1544 71.3032 76.2456 71.096 76.3924C70.8889 76.5393 70.7183 76.7266 70.5842 76.9596C70.4502 77.1874 70.3527 77.4457 70.2917 77.7242C70.2308 78.0027 70.2105 78.2914 70.2349 78.5851C70.2674 79.0003 70.3689 79.3548 70.5436 79.6434C70.7183 79.9321 70.9539 80.1397 71.2504 80.2713C71.5469 80.403 71.8922 80.4435 72.2822 80.3979L72.9971 80.3169C72.9321 80.8081 72.7574 81.1879 72.465 81.4664C72.1766 81.7399 71.7703 81.907 71.2504 81.9677L70.507 82.0538C70.3852 82.069 70.2958 82.1045 70.243 82.1652C70.1902 82.226 70.1699 82.3121 70.178 82.4286L70.2308 83.1578C70.243 83.3046 70.2877 83.4008 70.3689 83.4464C70.4502 83.492 70.568 83.5072 70.7223 83.4869L71.2626 83.4261C72.0384 83.3401 72.6396 83.0413 73.0743 82.54C73.5049 82.0386 73.773 81.2892 73.8745 80.2967L74.5082 80.2258C74.8007 80.1903 75.0688 80.0891 75.3206 79.9219C75.5725 79.7498 75.7512 79.4611 75.865 79.0408C76.0599 79.4105 76.2996 79.6485 76.5839 79.7649C76.8683 79.8814 77.1689 79.9219 77.4857 79.8865C78.0301 79.8308 78.4525 79.6687 78.7531 79.4004H78.7491ZM72.1644 79.0155C71.8475 79.0509 71.5957 79.0155 71.4007 78.9092C71.2098 78.8028 71.1042 78.6154 71.0838 78.342C71.0717 78.2053 71.092 78.0685 71.1367 77.9318C71.1813 77.8002 71.2626 77.6837 71.3682 77.5824C71.4779 77.4862 71.616 77.4254 71.7907 77.4052C72.0953 77.3697 72.3431 77.4811 72.5381 77.7394C72.7331 77.9976 72.8712 78.3926 72.9524 78.9193L72.1603 79.0104L72.1644 79.0155Z" fill="white"/>
<path d="M78.0579 80.7321C78.0173 80.6916 77.9726 80.6714 77.9279 80.6764C77.8833 80.6815 77.8386 80.7119 77.798 80.7625L77.4445 81.2942C77.4121 81.3449 77.3958 81.4006 77.4039 81.4613C77.412 81.5221 77.4324 81.5727 77.4689 81.6183L77.8955 82.0589C77.9401 82.0994 77.9889 82.1196 78.0417 82.1196C78.0904 82.1196 78.1311 82.0892 78.1595 82.0437L78.5251 81.512C78.5576 81.4613 78.5698 81.4006 78.5657 81.3347C78.5576 81.2689 78.5332 81.2183 78.4926 81.1727L78.0661 80.7321H78.0579Z" fill="white"/>
<path d="M79.3418 80.5853C79.3012 80.5448 79.2605 80.5245 79.2158 80.5296C79.1712 80.5296 79.1346 80.56 79.098 80.6106L78.7243 81.1423C78.6918 81.1929 78.6756 81.2486 78.6837 81.3094C78.6918 81.3702 78.7121 81.4259 78.7487 81.4664L79.1915 81.907C79.2321 81.9525 79.2768 81.9677 79.3215 81.9677C79.3702 81.9677 79.4068 81.9424 79.4433 81.8918L79.7967 81.3601C79.8292 81.3094 79.8414 81.2486 79.8374 81.1828C79.8292 81.117 79.8049 81.0663 79.7642 81.0208L79.3377 80.5802L79.3418 80.5853Z" fill="white"/>
<path d="M81.3037 74.448C81.3444 74.4886 81.3931 74.5088 81.4459 74.5088C81.4987 74.5088 81.5434 74.4784 81.5759 74.4278L81.9577 73.8606C82.043 73.7442 82.0309 73.6277 81.9212 73.5112L81.4622 73.0251C81.4215 72.9846 81.3769 72.9643 81.3281 72.9694C81.2794 72.9745 81.2387 73.0048 81.2022 73.0555L80.8244 73.6378C80.7838 73.6885 80.7675 73.7442 80.7716 73.81C80.7757 73.8708 80.8041 73.9265 80.8488 73.9771L81.3037 74.448Z" fill="white"/>
<path d="M85.4917 70.4272C85.4876 70.3512 85.4633 70.2904 85.4227 70.2449C85.382 70.1993 85.3292 70.179 85.2602 70.1841L84.6752 70.2499C84.6143 70.255 84.5656 70.2904 84.529 70.3411C84.4924 70.3968 84.4762 70.4626 84.4843 70.5386L84.8946 76.1646C84.919 76.519 84.9108 76.7976 84.8662 76.99C84.8215 77.1875 84.7362 77.3293 84.6102 77.4153C84.4843 77.5014 84.3218 77.5571 84.1147 77.5824C84.1147 77.5824 84.1106 77.5824 84.1065 77.5824C84.1065 77.5824 84.0984 77.5824 84.0943 77.5824L83.9156 77.6027C83.7613 77.6179 83.615 77.6128 83.4728 77.5824C83.3347 77.5521 83.2088 77.4812 83.0991 77.3698C82.9895 77.2584 82.9082 77.0913 82.8473 76.8735L82.4898 75.5923C82.4736 75.5316 82.4532 75.4759 82.4329 75.4303C82.4126 75.3797 82.3801 75.3493 82.3395 75.329C82.2989 75.3088 82.242 75.3138 82.1648 75.3493L81.6733 75.5569C81.5758 75.5974 81.5149 75.6531 81.4865 75.724C81.4621 75.7949 81.4621 75.881 81.4865 75.9873L81.7221 76.8836C81.7992 77.1571 81.8643 77.4305 81.9211 77.709C81.978 77.9876 82.0186 78.2559 82.0349 78.5193C82.0877 79.2282 81.9902 79.8004 81.7464 80.2359C81.5027 80.6664 81.0803 80.9196 80.4791 80.9854L80.2191 81.0158C80.1338 81.0259 80.0647 81.0563 80.02 81.117C79.9754 81.1728 79.9551 81.2487 79.9632 81.35L80.02 82.1248C80.0282 82.226 80.0525 82.302 80.0972 82.3577C80.1419 82.4083 80.2069 82.4337 80.2922 82.4235L80.6537 82.383C81.1127 82.3324 81.4987 82.2007 81.8074 81.988C82.1161 81.7754 82.3639 81.512 82.5467 81.1829C82.7295 80.8588 82.8554 80.4992 82.9285 80.0992C82.9976 79.6992 83.026 79.2941 83.0098 78.8737C83.0748 78.975 83.2048 79.051 83.4079 79.0966C83.6069 79.1472 83.8344 79.1523 84.0822 79.1269C84.4681 79.0814 84.7849 78.9902 85.0327 78.8484C85.2805 78.7066 85.4755 78.5091 85.6176 78.2509C85.7598 77.9926 85.8492 77.6736 85.8898 77.2938C85.9304 76.914 85.9345 76.4785 85.8979 75.9823L85.4917 70.417V70.4272Z" fill="white"/>
<path d="M88.3234 69.9157C88.2828 69.8701 88.23 69.8498 88.1609 69.86L87.576 69.9258C87.515 69.9309 87.4663 69.9663 87.4297 70.017C87.3932 70.0727 87.3769 70.1385 87.381 70.2145L87.9822 78.4332C87.9862 78.5091 88.0106 78.5699 88.0553 78.6154C88.1 78.661 88.1528 78.6813 88.2137 78.6762L88.7987 78.6104C88.8677 78.6003 88.9165 78.5699 88.953 78.5142C88.9855 78.4585 89.0018 78.3926 88.9936 78.3167L88.3924 70.098C88.3884 70.022 88.364 69.9613 88.3234 69.9157Z" fill="white"/>
<path d="M96.7361 72.9642C96.7767 73.0047 96.8214 73.03 96.8742 73.03C96.9229 73.03 96.9635 73.0047 97.0001 72.9439L97.3616 72.4021C97.4022 72.3464 97.4185 72.2806 97.4144 72.2147C97.4104 72.1489 97.386 72.0983 97.3372 72.0527L96.8904 71.602C96.8417 71.5513 96.797 71.5311 96.7523 71.5362C96.7076 71.5412 96.6711 71.5716 96.6386 71.6324L96.2567 72.1793C96.2242 72.2299 96.208 72.2907 96.212 72.3565C96.2161 72.4223 96.2405 72.473 96.2811 72.5186L96.7361 72.9692V72.9642Z" fill="white"/>
<path d="M95.322 73.1212C95.3708 73.1718 95.4195 73.1921 95.4683 73.187C95.517 73.182 95.5576 73.1516 95.5861 73.101L95.9679 72.5541C96.0085 72.4984 96.0207 72.4325 96.0167 72.3667C96.0085 72.3009 95.9801 72.2502 95.9354 72.2046L95.4886 71.754C95.452 71.7033 95.4114 71.6831 95.3627 71.6881C95.3139 71.6932 95.2692 71.7236 95.2286 71.7843L94.8671 72.3312C94.8346 72.392 94.8183 72.4477 94.8224 72.5034C94.8265 72.5591 94.8508 72.6148 94.8915 72.6655L95.3261 73.1162L95.322 73.1212Z" fill="white"/>
<path d="M102.236 76.7316C102.536 76.4633 102.731 76.1088 102.829 75.6632C102.922 75.2226 102.939 74.701 102.87 74.1086C102.853 73.9465 102.825 73.7794 102.788 73.5971C102.752 73.4148 102.719 73.2477 102.679 73.0907C102.642 72.9287 102.605 72.7919 102.573 72.6805C102.545 72.5742 102.508 72.4881 102.455 72.4273C102.402 72.3615 102.333 72.3463 102.24 72.3818L101.72 72.5793C101.651 72.6046 101.602 72.6451 101.574 72.7008C101.541 72.7565 101.545 72.8527 101.582 72.9793C101.622 73.1768 101.667 73.3844 101.72 73.5971C101.773 73.8098 101.813 74.0174 101.842 74.2149C101.899 74.6352 101.874 74.9745 101.769 75.2226C101.663 75.4708 101.432 75.6176 101.074 75.6581L100.989 75.6682L100.851 75.6834C100.639 75.7087 100.461 75.6885 100.319 75.6277C100.172 75.567 100.063 75.4454 99.9814 75.2682C99.9042 75.091 99.8514 74.8276 99.8229 74.4782L99.7498 73.4908C99.7336 73.2983 99.6523 73.2072 99.5061 73.2274L98.9374 73.2933C98.7871 73.3085 98.7221 73.4148 98.7343 73.6072L98.7952 74.4073C98.8358 74.9644 98.7424 75.3644 98.519 75.6125C98.2956 75.8607 97.8853 76.0176 97.2963 76.0835L95.2043 76.3215C94.6965 76.3822 94.2822 76.3417 93.9613 76.1999C93.6404 76.0632 93.4657 75.7543 93.4292 75.2834C93.4129 75.0808 93.4251 74.8833 93.4576 74.6858C93.4901 74.4883 93.5307 74.2858 93.5754 74.0782C93.5998 73.9668 93.5998 73.8908 93.5754 73.8503C93.551 73.8098 93.5104 73.7845 93.4535 73.7743L92.9051 73.6022C92.828 73.5718 92.767 73.5718 92.7264 73.6022C92.6858 73.6326 92.6533 73.6882 92.637 73.7693C92.438 74.4681 92.3568 75.0808 92.3974 75.5973C92.438 76.1291 92.568 76.5797 92.7955 76.9393C93.0189 77.2988 93.3479 77.5571 93.7704 77.7191C94.1928 77.8761 94.7169 77.9217 95.3384 77.8508L97.1704 77.6432C97.5806 77.5976 97.93 77.5216 98.2184 77.4153C98.5068 77.3089 98.7465 77.157 98.9374 76.9646C99.1242 76.7722 99.2705 76.524 99.368 76.2253C99.5467 76.6405 99.7701 76.919 100.038 77.0608C100.306 77.2026 100.615 77.2532 100.968 77.2127C101.517 77.157 101.939 76.995 102.236 76.7266V76.7316Z" fill="white"/>
<path d="M101.545 78.0635C101.505 78.023 101.46 78.0028 101.415 78.0078C101.371 78.0129 101.326 78.0433 101.285 78.0939L100.932 78.6256C100.899 78.6763 100.883 78.732 100.891 78.7927C100.899 78.8535 100.92 78.9092 100.956 78.9497L101.383 79.3903C101.432 79.4308 101.476 79.451 101.529 79.451C101.578 79.451 101.618 79.4207 101.647 79.3751L102.012 78.8434C102.045 78.7927 102.057 78.732 102.053 78.6712C102.045 78.6054 102.02 78.5497 101.98 78.5092L101.553 78.0686L101.545 78.0635Z" fill="white"/>
<path d="M102.829 77.9167C102.788 77.8762 102.747 77.8559 102.703 77.861C102.658 77.8661 102.621 77.8914 102.585 77.9471L102.211 78.4788C102.179 78.5294 102.162 78.5851 102.171 78.6459C102.179 78.7067 102.199 78.7573 102.236 78.8029L102.682 79.2434C102.723 79.2839 102.768 79.3042 102.812 79.3042C102.861 79.3042 102.898 79.2789 102.934 79.2282L103.288 78.6965C103.32 78.6459 103.336 78.5851 103.328 78.5244C103.32 78.4585 103.296 78.4079 103.255 78.3623L102.829 77.9218V77.9167Z" fill="white"/>
<path d="M106.363 74.3719C106.253 73.8807 106.14 73.4097 106.01 72.9742C105.965 72.8071 105.92 72.7058 105.867 72.6704C105.815 72.635 105.746 72.6349 105.66 72.6755L105.144 72.9084C105.047 72.9489 104.986 73.0097 104.966 73.0856C104.941 73.1616 104.953 73.2781 104.994 73.43C105.116 73.83 105.226 74.2149 105.319 74.5845C105.412 74.9542 105.473 75.334 105.502 75.7189C105.538 76.205 105.514 76.6354 105.437 77.0051C105.356 77.3748 105.201 77.6735 104.974 77.9065C104.742 78.1343 104.425 78.2711 104.015 78.3217L103.719 78.3571C103.633 78.3673 103.568 78.3977 103.52 78.4584C103.475 78.5141 103.455 78.5951 103.463 78.6914L103.52 79.4661C103.528 79.5674 103.552 79.6434 103.597 79.6991C103.641 79.7497 103.706 79.775 103.796 79.7649L104.243 79.7143C104.828 79.6484 105.299 79.4307 105.664 79.0661C106.03 78.7015 106.286 78.2356 106.432 77.6634C106.582 77.0912 106.631 76.4633 106.578 75.7746C106.546 75.334 106.477 74.8681 106.367 74.3719H106.363Z" fill="white"/>
<path d="M104.974 71.7538C105.014 71.7944 105.059 71.8146 105.116 71.8146C105.168 71.8146 105.213 71.7842 105.246 71.7336L105.628 71.1664C105.713 71.05 105.701 70.9335 105.595 70.817L105.136 70.3309C105.095 70.2904 105.051 70.2701 105.002 70.2752C104.953 70.2802 104.913 70.3106 104.876 70.3613L104.498 70.9436C104.458 70.9943 104.441 71.05 104.445 71.1158C104.449 71.1766 104.478 71.2322 104.523 71.2829L104.978 71.7538H104.974Z" fill="white"/>
<path d="M113.74 79.1575C113.707 79.1119 113.667 79.0967 113.618 79.1018C113.573 79.1068 113.533 79.1372 113.496 79.1879L113.122 79.7347C113.094 79.7753 113.082 79.831 113.086 79.8968C113.09 79.9626 113.11 80.0133 113.143 80.0487L113.589 80.4994C113.63 80.5348 113.675 80.55 113.723 80.55C113.772 80.55 113.813 80.5247 113.841 80.4842L114.203 79.9424C114.235 79.8917 114.252 79.831 114.243 79.7702C114.235 79.7044 114.211 79.6537 114.17 79.6183L113.736 79.1676L113.74 79.1575Z" fill="white"/>
<path d="M112.456 79.2991C112.424 79.2535 112.379 79.2383 112.33 79.2434C112.282 79.2484 112.241 79.2788 112.205 79.3295L111.843 79.8713C111.815 79.9118 111.802 79.9675 111.806 80.0333C111.81 80.0992 111.831 80.1498 111.863 80.1853L112.298 80.641C112.339 80.6764 112.383 80.6916 112.432 80.6916C112.481 80.6916 112.521 80.6663 112.55 80.6258L112.924 80.0789C112.956 80.0283 112.972 79.9675 112.964 79.9067C112.956 79.8409 112.932 79.7903 112.891 79.7548L112.456 79.3041V79.2991Z" fill="white"/>
<path d="M117.237 67.3229C117.278 67.3634 117.323 67.3837 117.38 67.3837C117.432 67.3837 117.477 67.3533 117.509 67.3077L117.891 66.7406C117.977 66.6241 117.964 66.5076 117.855 66.3962L117.396 65.9101C117.355 65.8696 117.31 65.8493 117.262 65.8544C117.213 65.8595 117.172 65.8898 117.136 65.9405L116.758 66.5228C116.717 66.5735 116.701 66.6292 116.705 66.695C116.709 66.7558 116.734 66.8115 116.782 66.8621L117.237 67.3381V67.3229Z" fill="white"/>
<path d="M119.236 69.779C119.049 69.3435 118.801 69.0143 118.5 68.7864C118.2 68.5585 117.854 68.4674 117.465 68.513C117.16 68.5484 116.888 68.675 116.64 68.8978C116.392 69.1206 116.205 69.4042 116.071 69.7536C115.937 70.098 115.88 70.4778 115.905 70.8879C115.933 71.2728 116.018 71.602 116.165 71.8805C116.311 72.1539 116.506 72.3615 116.758 72.4983C117.01 72.635 117.294 72.6806 117.619 72.6451C117.911 72.6097 118.171 72.5134 118.407 72.3514C118.537 72.2603 118.647 72.1539 118.74 72.0374C118.76 72.3109 118.76 72.5489 118.74 72.7413C118.699 73.0755 118.586 73.3237 118.395 73.4807C118.208 73.6427 117.928 73.744 117.562 73.7845L115.535 74.0174L113.451 74.2554C113.321 74.2706 113.264 74.3618 113.276 74.5339L113.346 75.4708C113.358 75.6429 113.431 75.7189 113.561 75.7037L114.073 75.6429C114.215 75.6277 114.329 75.6632 114.418 75.7493C114.507 75.8354 114.556 75.962 114.568 76.124C114.589 76.3924 114.479 76.6051 114.235 76.7519C113.991 76.8988 113.654 77 113.22 77.0456L112.513 77.1266C112.103 77.1722 111.765 77.1317 111.497 77.0001C111.229 76.8735 111.022 76.676 110.884 76.4076C110.742 76.1443 110.66 75.8354 110.632 75.4758C110.612 75.1973 110.624 74.9289 110.673 74.6656C110.717 74.4023 110.799 74.1136 110.912 73.7946C110.953 73.6781 110.969 73.587 110.957 73.5212C110.945 73.4503 110.892 73.4047 110.795 73.3794L110.315 73.2123C110.246 73.192 110.185 73.192 110.132 73.2123C110.08 73.2376 110.039 73.3034 110.002 73.4098C109.832 73.825 109.714 74.2352 109.649 74.6352C109.584 75.0353 109.564 75.4151 109.592 75.7695C109.625 76.1949 109.706 76.5899 109.844 76.9595C109.982 77.3241 110.169 77.6432 110.405 77.9065C110.644 78.1698 110.937 78.3673 111.286 78.499C111.635 78.6306 112.042 78.6711 112.501 78.6205L113.281 78.5344C113.683 78.4888 114.028 78.3926 114.32 78.2458C114.609 78.0989 114.844 77.9166 115.023 77.6989C115.202 77.4811 115.328 77.233 115.401 76.9545C115.474 76.676 115.498 76.3823 115.478 76.0632C115.466 75.8759 115.421 75.7088 115.352 75.5771L115.527 75.5568C115.527 75.5568 115.551 75.5467 115.568 75.5467C115.588 75.5467 115.6 75.5467 115.62 75.5467L117.501 75.334C117.993 75.2783 118.383 75.1365 118.679 74.9087C118.976 74.6808 119.199 74.382 119.345 74.0225C119.491 73.6579 119.585 73.2477 119.617 72.7818C119.65 72.316 119.642 71.8248 119.597 71.3082C119.552 70.7208 119.439 70.2094 119.252 69.7739L119.236 69.779ZM118.131 71.212C117.944 71.3082 117.761 71.3639 117.59 71.3842C117.379 71.4095 117.192 71.3639 117.026 71.2576C116.859 71.1462 116.77 70.9588 116.75 70.6955C116.741 70.574 116.762 70.4373 116.811 70.2955C116.859 70.1537 116.936 70.0321 117.046 69.9359C117.156 69.8397 117.29 69.7789 117.452 69.7637C117.651 69.7435 117.826 69.7789 117.98 69.8853C118.135 69.9916 118.265 70.1284 118.37 70.3056C118.476 70.4778 118.557 70.6601 118.606 70.8525C118.472 70.9993 118.313 71.1209 118.127 71.2171L118.131 71.212Z" fill="white"/>
<path d="M125.211 70.9386L126.316 70.812C126.584 70.7816 126.783 70.6804 126.917 70.5082C127.052 70.336 127.108 70.1082 127.088 69.8246C127.076 69.6524 127.035 69.5005 126.966 69.3587C126.897 69.2169 126.755 69.0802 126.536 68.9384L126.052 68.6194C126.02 68.5991 125.991 68.5789 125.967 68.5586C125.943 68.5383 125.93 68.508 125.926 68.4725C125.922 68.4168 125.959 68.351 126.044 68.27L126.796 67.5306C126.889 67.4445 126.905 67.3433 126.84 67.2318L126.69 66.9685C126.653 66.9128 126.617 66.8774 126.576 66.8723C126.536 66.8622 126.483 66.8976 126.418 66.9635L125.642 67.7534C125.52 67.875 125.423 68.0016 125.354 68.1282C125.285 68.2548 125.256 68.4016 125.268 68.5788C125.276 68.7156 125.317 68.832 125.386 68.9283C125.455 69.0194 125.54 69.1004 125.638 69.1663L126.231 69.5764C126.304 69.622 126.353 69.6625 126.377 69.703C126.402 69.7385 126.414 69.7739 126.418 69.8144C126.426 69.9461 126.361 70.0221 126.219 70.0372L125.15 70.1588C125.02 70.174 124.96 70.2651 124.972 70.4373L124.996 70.7361C125.008 70.8829 125.077 70.9488 125.207 70.9336L125.211 70.9386Z" fill="white"/>
<path d="M132.251 74.4884C132.211 74.4478 132.166 74.4276 132.121 74.4326C132.077 74.4377 132.032 74.4681 131.991 74.5187L131.63 75.0758C131.597 75.1264 131.581 75.1821 131.585 75.2479C131.589 75.3138 131.614 75.3644 131.654 75.3999L132.093 75.8657C132.138 75.8961 132.186 75.9164 132.235 75.9113C132.284 75.9113 132.328 75.886 132.361 75.8455L132.722 75.2884C132.763 75.2378 132.779 75.1771 132.771 75.1112C132.763 75.0454 132.735 74.9948 132.69 74.9492L132.251 74.4833V74.4884Z" fill="white"/>
<path d="M140.221 67.3939C140.034 66.9584 139.79 66.6293 139.485 66.4014C139.185 66.1735 138.84 66.0824 138.45 66.1279C138.145 66.1634 137.873 66.29 137.625 66.5128C137.377 66.7356 137.19 67.0192 137.056 67.3686C136.922 67.7129 136.865 68.0927 136.89 68.5029C136.918 68.8878 137.003 69.222 137.15 69.4954C137.296 69.7689 137.491 69.9765 137.743 70.1132C137.995 70.2499 138.279 70.2955 138.604 70.2601C138.896 70.2246 139.156 70.1284 139.392 69.9664C139.522 69.8752 139.632 69.7689 139.721 69.6524C139.741 69.9259 139.745 70.1639 139.721 70.3563C139.68 70.6905 139.563 70.9386 139.376 71.0956C139.189 71.2577 138.909 71.3589 138.543 71.3994L136.516 71.6273C136.244 71.6577 136.029 71.6476 135.87 71.5919C135.712 71.5362 135.598 71.4197 135.521 71.2526C135.448 71.0804 135.395 70.8323 135.375 70.5082L134.96 64.8265C134.948 64.6341 134.863 64.5429 134.704 64.5632L134.148 64.629C133.997 64.6442 133.932 64.7506 133.945 64.943L134.359 70.6247C134.392 71.0956 134.359 71.4298 134.245 71.6172C134.136 71.8096 133.912 71.9261 133.575 71.9615L133.445 71.9767C133.136 72.0122 132.893 71.9565 132.722 71.8147C132.547 71.6678 132.446 71.3691 132.413 70.9133L132.332 69.7891C132.32 69.5866 132.235 69.4954 132.088 69.5106L131.532 69.5714C131.381 69.5866 131.316 69.698 131.329 69.9005L131.41 71.0247C131.442 71.4703 131.398 71.7894 131.276 71.9666C131.154 72.1489 130.959 72.2552 130.695 72.2856L130.602 72.2957C130.602 72.2957 130.593 72.2957 130.589 72.2957C130.589 72.2957 130.585 72.2957 130.581 72.2957C130.301 72.3261 130.078 72.316 129.911 72.2552C129.744 72.1945 129.623 72.078 129.549 71.9008C129.472 71.7235 129.424 71.4653 129.399 71.1361L128.985 65.4544C128.981 65.3785 128.956 65.3177 128.92 65.2823C128.883 65.2418 128.83 65.2266 128.761 65.2367L128.111 65.3127C128.051 65.3177 128.002 65.3481 127.973 65.3937C127.941 65.4393 127.929 65.5 127.937 65.581L128.355 71.2982C128.392 71.7843 128.302 72.1287 128.087 72.3261C127.872 72.5236 127.555 72.6502 127.133 72.6958L125.755 72.8528C125.345 72.8984 124.988 72.9034 124.683 72.8629C124.378 72.8224 124.135 72.7161 123.952 72.5439C123.769 72.3717 123.668 72.1135 123.643 71.7742C123.631 71.5817 123.635 71.3893 123.668 71.1918C123.696 70.9994 123.737 70.7918 123.781 70.5791C123.798 70.493 123.789 70.4272 123.753 70.3917C123.716 70.3512 123.647 70.3259 123.554 70.3006L123.115 70.1993C123.038 70.1791 122.981 70.1841 122.936 70.2145C122.896 70.2449 122.855 70.3259 122.823 70.4576C122.75 70.7411 122.697 71.0146 122.664 71.2931C122.632 71.5716 122.624 71.8349 122.644 72.0881C122.689 72.7009 122.835 73.187 123.083 73.5516C123.33 73.9162 123.68 74.1694 124.131 74.3061C124.582 74.4428 125.13 74.4732 125.776 74.3973L127.181 74.2403C127.628 74.1897 127.994 74.0782 128.278 73.9111C128.562 73.744 128.786 73.506 128.952 73.1971C129.086 73.3896 129.245 73.5415 129.424 73.6427C129.606 73.7491 129.797 73.8149 129.996 73.8402C130.195 73.8656 130.386 73.8706 130.573 73.8504C130.866 73.82 131.138 73.7187 131.386 73.5465C131.637 73.3744 131.816 73.0857 131.93 72.6654C132.125 73.0351 132.365 73.2731 132.649 73.3896C132.933 73.506 133.234 73.5465 133.547 73.5111C133.851 73.4756 134.127 73.3744 134.371 73.2073C134.619 73.0402 134.798 72.7465 134.911 72.3261C135.106 72.6958 135.342 72.9338 135.618 73.0503C135.895 73.1667 136.183 73.2073 136.479 73.1769C136.496 73.1769 136.508 73.1667 136.524 73.1617C136.544 73.1617 136.561 73.1617 136.585 73.1617L138.466 72.949C138.957 72.8933 139.347 72.7515 139.644 72.5236C139.94 72.2958 140.16 71.997 140.31 71.6375C140.456 71.2729 140.55 70.8627 140.578 70.3968C140.611 69.9309 140.602 69.4448 140.562 68.9232C140.517 68.3358 140.403 67.8243 140.217 67.3889L140.221 67.3939ZM139.116 68.827C138.929 68.9232 138.75 68.9789 138.576 68.9992C138.364 69.0245 138.177 68.9789 138.011 68.8726C137.844 68.7612 137.755 68.5738 137.735 68.3105C137.727 68.1889 137.747 68.0522 137.796 67.9104C137.844 67.7686 137.921 67.6471 138.031 67.5509C138.141 67.4547 138.275 67.3939 138.433 67.3787C138.632 67.3585 138.807 67.3939 138.961 67.5003C139.116 67.6066 139.246 67.7433 139.351 67.9155C139.457 68.0927 139.538 68.27 139.587 68.4624C139.453 68.6092 139.294 68.7308 139.108 68.827H139.116Z" fill="white"/>
<path d="M138.937 64.8772C138.978 64.9178 139.023 64.9431 139.075 64.9431C139.124 64.9431 139.169 64.9178 139.201 64.857L139.563 64.3152C139.603 64.2544 139.62 64.1936 139.616 64.1278C139.612 64.062 139.583 64.0063 139.538 63.9658L139.092 63.5151C139.043 63.4644 138.998 63.4442 138.953 63.4492C138.909 63.4492 138.872 63.4847 138.84 63.5454L138.458 64.0923C138.425 64.143 138.409 64.1987 138.413 64.2645C138.417 64.3304 138.442 64.3861 138.482 64.4266L138.937 64.8772Z" fill="white"/>
<path d="M137.524 65.0392C137.572 65.0898 137.621 65.1101 137.67 65.105C137.719 65.0999 137.759 65.0695 137.788 65.0189L138.17 64.472C138.21 64.4112 138.226 64.3505 138.218 64.2846C138.21 64.2188 138.182 64.1682 138.137 64.1226L137.69 63.6719C137.654 63.6213 137.613 63.596 137.564 63.6061C137.516 63.6111 137.471 63.6466 137.43 63.7023L137.069 64.2441C137.036 64.2998 137.02 64.3606 137.024 64.4163C137.028 64.472 137.052 64.5277 137.093 64.5783L137.528 65.029L137.524 65.0392Z" fill="white"/>
<path d="M147.025 64.8113C147.065 64.8518 147.11 64.8772 147.163 64.8772C147.211 64.8772 147.256 64.8519 147.289 64.7911L147.65 64.2492C147.691 64.1885 147.707 64.1277 147.703 64.0619C147.699 63.9961 147.671 63.9403 147.626 63.8998L147.179 63.4492C147.13 63.3985 147.086 63.3783 147.041 63.3833C146.996 63.3884 146.96 63.4188 146.927 63.4795L146.545 64.0264C146.513 64.0771 146.497 64.1378 146.501 64.2037C146.505 64.2695 146.529 64.3201 146.57 64.3657L147.025 64.8164V64.8113Z" fill="white"/>
<path d="M145.611 64.9734C145.66 65.024 145.709 65.0443 145.757 65.0392C145.806 65.0341 145.847 65.0037 145.875 64.9531L146.257 64.4062C146.298 64.3454 146.314 64.2847 146.306 64.2188C146.298 64.153 146.273 64.0973 146.224 64.0568L145.778 63.6061C145.741 63.5555 145.7 63.5302 145.652 63.5403C145.603 63.5454 145.558 63.5757 145.518 63.6365L145.156 64.1783C145.124 64.2391 145.107 64.2948 145.111 64.3556C145.116 64.4113 145.14 64.467 145.181 64.5176L145.615 64.9683L145.611 64.9734Z" fill="white"/>
<path d="M165.41 67.1559C165.381 66.7711 165.288 66.4217 165.129 66.1077C164.971 65.7938 164.752 65.5507 164.471 65.3734C164.191 65.2013 163.846 65.1354 163.444 65.181C163.017 65.2317 162.603 65.4089 162.205 65.7229C161.807 66.0368 161.445 66.4723 161.12 67.0344C160.828 67.5357 160.588 68.1434 160.393 68.8473C160.352 68.8371 160.316 68.827 160.279 68.8169C160.125 68.7561 160.011 68.6397 159.938 68.4675C159.865 68.2953 159.82 68.0573 159.796 67.7484L159.743 67.0395C159.731 66.847 159.65 66.7609 159.499 66.7761L158.943 66.842C158.792 66.8572 158.727 66.9635 158.74 67.1559L158.797 67.956C158.821 68.2903 158.817 68.5384 158.784 68.7055C158.752 68.8726 158.675 68.9891 158.549 69.0549C158.423 69.1207 158.236 69.1663 157.988 69.1967L157.31 69.2727C157.135 69.2929 156.985 69.298 156.851 69.2878C156.721 69.2777 156.603 69.2423 156.506 69.1764C156.408 69.1106 156.327 68.9941 156.266 68.8321C156.246 68.7764 156.225 68.7055 156.209 68.6346L156.367 68.4472L156.871 68.3915C156.952 68.3814 157.013 68.351 157.05 68.2903C157.09 68.2295 157.107 68.1535 157.099 68.0624L157.05 67.3787C157.042 67.2623 157.021 67.1813 156.989 67.1407C156.956 67.1002 156.895 67.08 156.802 67.0901L156.384 67.1357C156.091 67.1711 155.831 67.161 155.6 67.1053C155.368 67.0547 155.153 66.9838 154.954 66.8926C154.755 66.8015 154.556 66.7103 154.357 66.6192C154.158 66.528 153.946 66.4571 153.727 66.4065C153.508 66.3558 153.26 66.3407 152.988 66.3761C152.72 66.4065 152.484 66.4824 152.277 66.609C152.07 66.7356 151.899 66.8876 151.761 67.0699C151.623 67.2522 151.521 67.4496 151.456 67.6623C151.391 67.8699 151.363 68.0776 151.379 68.2801C151.391 68.4675 151.485 68.5485 151.659 68.5283L152.033 68.4877C152.135 68.4776 152.2 68.4523 152.24 68.4118C152.277 68.3713 152.322 68.3054 152.37 68.2042C152.431 68.0826 152.512 67.9712 152.622 67.8801C152.732 67.7889 152.878 67.7282 153.065 67.7079C153.288 67.6826 153.491 67.6978 153.678 67.7484C153.861 67.7991 154.04 67.8699 154.214 67.9611C154.385 68.0522 154.568 68.1383 154.763 68.2244C154.942 68.3054 155.145 68.3662 155.364 68.4118L155.072 68.6903C154.71 69.0296 154.344 69.2828 153.979 69.4549C153.613 69.6271 153.179 69.7436 152.667 69.8044L151.066 69.9866L148.442 70.2854L148.138 70.3209C147.841 70.3563 147.63 70.3057 147.508 70.1791C147.386 70.0474 147.309 69.7689 147.276 69.3334L147.037 66.052C147.033 65.9811 147.012 65.9254 146.972 65.8798C146.935 65.8343 146.886 65.814 146.83 65.8191L146.232 65.8849C146.171 65.89 146.119 65.9203 146.074 65.971C146.029 66.0216 146.013 66.0925 146.017 66.1735L146.054 66.685L145.083 67.2775C144.677 67.5205 144.356 67.7788 144.116 68.0523C143.88 68.3308 143.718 68.6143 143.633 68.9131C143.543 69.2119 143.511 69.5157 143.535 69.8246C143.572 70.3411 143.726 70.7412 143.998 71.0197C144.27 71.3033 144.636 71.4147 145.103 71.364C145.396 71.3286 145.656 71.2273 145.883 71.045C146.111 70.8678 146.293 70.6348 146.427 70.3462C146.545 70.9235 146.74 71.3336 147.016 71.5767C147.289 71.8198 147.658 71.9109 148.125 71.8603L148.422 71.8248C148.422 71.8248 148.434 71.8249 148.442 71.8198C148.45 71.8198 148.458 71.8198 148.467 71.8198L148.702 71.7945L151.034 71.5311L152.382 71.3792C152.902 71.3184 153.349 71.1969 153.715 71.0096C154.084 70.8222 154.397 70.6044 154.665 70.3512C154.929 70.0981 155.169 69.855 155.376 69.6119L155.644 69.2929C155.738 69.6423 155.864 69.9259 156.014 70.1386C156.217 70.4222 156.457 70.6095 156.733 70.7007C157.013 70.7918 157.322 70.8121 157.663 70.7766L157.952 70.7412C157.952 70.7412 157.976 70.7361 157.988 70.731C157.996 70.731 158 70.731 158.008 70.731C158.317 70.6956 158.593 70.5893 158.837 70.407C159.081 70.2297 159.243 69.936 159.329 69.536C159.499 69.9056 159.731 70.1487 160.023 70.2702C160.316 70.3867 160.661 70.4272 161.059 70.3816L162.745 70.1892C163.338 70.1234 163.846 69.9613 164.256 69.7081C164.67 69.4549 164.975 69.1157 165.17 68.6852C165.365 68.2599 165.442 67.7434 165.402 67.1509L165.41 67.1559ZM146.139 69.3435C146.066 69.541 145.956 69.698 145.818 69.8195C145.676 69.9411 145.505 70.012 145.31 70.0373C145.107 70.0575 144.937 70.0221 144.803 69.9158C144.669 69.8094 144.595 69.6423 144.579 69.4195C144.563 69.2017 144.624 68.9992 144.762 68.8017C144.9 68.6093 145.111 68.432 145.392 68.2751L146.159 67.8598L146.224 68.7409C146.241 68.9486 146.212 69.1511 146.139 69.3486V69.3435ZM164.142 68.2244C163.89 68.432 163.517 68.5637 163.013 68.6194L161.266 68.8169C161.404 68.4624 161.563 68.1231 161.75 67.8244C161.977 67.4648 162.229 67.1661 162.505 66.9331C162.781 66.7002 163.074 66.5635 163.387 66.528C163.708 66.4824 163.968 66.5432 164.159 66.7154C164.354 66.8875 164.459 67.1104 164.479 67.399C164.504 67.7383 164.39 68.0117 164.142 68.2194V68.2244Z" fill="white"/>
<defs>
<filter id="filter0_d_251_18" x="53.6862" y="40.1781" width="142.354" height="77.4568" filterUnits="userSpaceOnUse" color-interpolation-filters="sRGB">
<feFlood flood-opacity="0" result="BackgroundImageFix"/>
<feColorMatrix in="SourceAlpha" type="matrix" values="0 0 0 0 0 0 0 0 0 0 0 0 0 0 0 0 0 0 127 0" result="hardAlpha"/>
<feOffset dx="11.16" dy="11.16"/>
<feGaussianBlur stdDeviation="7.44"/>
<feColorMatrix type="matrix" values="0 0 0 0 0 0 0 0 0 0 0 0 0 0 0 0 0 0 0.75 0"/>
<feBlend mode="normal" in2="BackgroundImageFix" result="effect1_dropShadow_251_18"/>
<feBlend mode="normal" in="SourceGraphic" in2="effect1_dropShadow_251_18" result="shape"/>
</filter>
<filter id="filter1_d_251_18" x="0.84" y="0.84" width="169.456" height="76.2466" filterUnits="userSpaceOnUse" color-interpolation-filters="sRGB">
<feFlood flood-opacity="0" result="BackgroundImageFix"/>
<feColorMatrix in="SourceAlpha" type="matrix" values="0 0 0 0 0 0 0 0 0 0 0 0 0 0 0 0 0 0 127 0" result="hardAlpha"/>
<feOffset dx="3.72" dy="3.72"/>
<feGaussianBlur stdDeviation="7.44"/>
<feColorMatrix type="matrix" values="0 0 0 0 0 0 0 0 0 0 0 0 0 0 0 0 0 0 0.7 0"/>
<feBlend mode="normal" in2="BackgroundImageFix" result="effect1_dropShadow_251_18"/>
<feBlend mode="normal" in="SourceGraphic" in2="effect1_dropShadow_251_18" result="shape"/>
</filter>
</defs>
</svg>
