<svg width="438" height="178" viewBox="0 0 438 178" fill="none" xmlns="http://www.w3.org/2000/svg">
<path fill-rule="evenodd" clip-rule="evenodd" d="M437.989 141.744L435.996 96.2347C435.725 84.5081 430.286 72.635 414.713 71.5198C399.139 70.4046 392.112 71.2945 392.112 71.2945V99.5578C391.606 105.325 387 108.671 382.101 108.615L125.873 109.009L128.182 157.864C129.139 170.278 137.528 177.938 149.949 176.98L438 141.744H437.989Z" fill="#B29F2C"/>
<path fill-rule="evenodd" clip-rule="evenodd" d="M29.3456 0C13.2089 0 0 13.2136 0 29.3672V103.41H381.932C387.034 103.41 387.259 97.6542 387.259 97.6542V0.0112414H29.3456V0Z" fill="white"/>
<path d="M59.5696 87.2792V54.9381C59.5696 49.4634 57.8918 44.5745 54.5473 40.2601C51.2028 35.9457 46.8562 33.1183 41.5186 31.7665V87.2792H27.8142V17.2913C32.2509 17.2913 36.4512 17.449 40.4037 17.7757C44.3563 18.1024 48.275 19.195 52.1262 21.0537C53.3424 21.6958 54.5811 22.4055 55.8423 23.1715C57.0923 23.9488 58.3309 24.85 59.5584 25.875V17.28H73.3641V87.2679H59.5584L59.5696 87.2792Z" fill="#305428"/>
<path d="M145.647 78.0084C138.44 85.2179 129.758 88.8226 119.59 88.8226C109.421 88.8226 100.818 85.2179 93.5772 78.0084C86.3365 70.799 82.7218 62.1476 82.7218 52.0432C82.7218 41.9387 86.3365 33.186 93.5772 25.9765C100.818 18.7671 109.489 15.1624 119.59 15.1624C129.691 15.1624 138.44 18.7671 145.647 25.9765C152.854 33.186 156.458 41.8711 156.458 52.0432C156.458 62.2152 152.854 70.8103 145.647 78.0084ZM135.952 35.6755C131.414 31.1358 125.963 28.8716 119.59 28.8716C113.216 28.8716 107.777 31.1358 103.284 35.6755C98.7797 40.2152 96.5276 45.6673 96.5276 52.0432C96.5276 58.419 98.7797 63.8599 103.284 68.3545C107.788 72.8604 113.227 75.1134 119.59 75.1134C125.952 75.1134 131.414 72.8604 135.952 68.3545C140.49 63.8486 142.753 58.4077 142.753 52.0432C142.753 45.6786 140.49 40.2152 135.952 35.6755Z" fill="#305428"/>
<path d="M179.137 34.7067C179.013 35.574 178.945 36.4639 178.945 37.3651C178.945 39.742 179.407 42.0288 180.342 44.2141C181.276 46.3995 182.29 48.5961 183.382 50.7815C183.506 51.0405 183.63 51.2771 183.72 51.5024C183.81 51.7277 183.923 51.9417 184.058 52.1332C184.249 52.5162 184.441 52.9218 184.632 53.3386C184.823 53.7554 185.015 54.1609 185.206 54.5439C185.916 56.0872 186.49 57.653 186.941 59.23C187.391 60.8071 187.718 62.4067 187.909 64.0063C187.977 64.5245 188.022 65.0539 188.055 65.5946C188.089 66.1466 188.1 66.6761 188.1 67.183C188.033 72.7816 186.513 78.0421 183.517 82.9648C180.522 87.8875 176.333 91.6387 170.916 94.2071L165.027 81.9511C167.921 80.5317 170.196 78.4815 171.829 75.778C173.473 73.0744 174.295 70.2132 174.295 67.183C174.295 66.6085 174.261 66.0452 174.193 65.4932C174.126 64.9525 174.036 64.378 173.901 63.8035C173.777 63.229 173.608 62.6658 173.416 62.1138C173.225 61.5731 173 60.9986 172.741 60.4241L167.91 50.3872C167.268 48.9678 166.716 47.5597 166.266 46.1404C165.815 44.721 165.489 43.3129 165.297 41.8936C165.23 41.1839 165.173 40.4742 165.106 39.7645C165.038 39.0548 165.004 38.3452 165.004 37.6355C165.004 32.0369 166.513 26.7763 169.543 21.8536C172.572 16.9309 176.749 13.1797 182.087 10.6113L187.977 23.0701C186.051 23.9713 184.373 25.2105 182.954 26.7875C181.535 28.3646 180.477 30.1557 179.767 32.1495C179.441 32.9831 179.216 33.8393 179.092 34.7067H179.137Z" fill="#305428"/>
<path d="M230.283 17.28V30.9892H221.016V87.2679H207.21V30.9892H198.044V17.28H230.272H230.283Z" fill="#305428"/>
<path d="M288.479 87.2794H270.912L265.417 80.3291C264.584 80.9036 263.694 81.4556 262.759 81.9738C261.825 82.4919 260.879 82.9425 259.911 83.3255L254.505 70.6752C258.683 68.8728 261.825 66.2143 263.919 62.711C266.014 59.2076 267.061 55.5241 267.061 51.6603C267.061 47.5374 265.901 43.6623 263.593 40.0238C261.273 36.3853 257.839 33.7605 253.267 32.1497V87.2794H239.461V17.2915H246.409C256.893 17.2915 265.259 20.8624 271.498 27.993C277.736 35.1236 280.856 43.0991 280.856 51.8968C280.856 52.5389 280.844 53.181 280.811 53.8231C280.777 54.4652 280.732 55.1073 280.664 55.7494C280.338 58.3177 279.729 60.8636 278.829 63.3644C277.928 65.8651 276.7 68.2758 275.158 70.5963L288.479 87.2794Z" fill="#305428"/>
<path d="M353.42 78.0084C346.213 85.2179 337.531 88.8226 327.363 88.8226C317.194 88.8226 308.591 85.2179 301.35 78.0084C294.11 70.799 290.495 62.1476 290.495 52.0432C290.495 41.9387 294.11 33.186 301.35 25.9765C308.591 18.7671 317.262 15.1624 327.363 15.1624C337.464 15.1624 346.213 18.7671 353.42 25.9765C360.627 33.186 364.231 41.8711 364.231 52.0432C364.231 62.2152 360.627 70.8103 353.42 78.0084ZM343.725 35.6755C339.186 31.1358 333.736 28.8716 327.363 28.8716C320.989 28.8716 315.55 31.1358 311.057 35.6755C306.553 40.2152 304.301 45.6673 304.301 52.0432C304.301 58.419 306.553 63.8599 311.057 68.3545C315.561 72.8604 321 75.1134 327.363 75.1134C333.725 75.1134 339.186 72.8604 343.725 68.3545C348.263 63.8486 350.526 58.4077 350.526 52.0432C350.526 45.6786 348.263 40.2152 343.725 35.6755Z" fill="#305428"/>
<path d="M327.363 81.2527C343.657 81.2527 356.866 68.039 356.866 51.739C356.866 35.4391 343.657 22.2253 327.363 22.2253C311.068 22.2253 297.859 35.4391 297.859 51.739C297.859 68.039 311.068 81.2527 327.363 81.2527Z" fill="#21391A"/>
<path d="M336.856 35.8671C340.256 36.2275 342.936 36.4866 345.616 36.8133C347.137 37.0048 347.824 37.8046 347.565 38.9874C347.238 40.4969 346.168 40.4405 345.098 40.249C332.869 38.0637 321.597 40.8686 311.192 48.0555C309.74 49.0581 308.388 50.2184 307.048 51.3899C306.159 52.1559 305.303 52.5276 304.492 51.4462C303.704 50.3761 304.165 49.4749 305.033 48.6976C311.26 43.1441 318.298 39.3253 326.158 37.523C329.885 36.6669 333.714 36.3402 336.844 35.8671H336.856Z" fill="#91993F"/>
<path d="M340.313 51.3448C340.166 53.778 339.727 55.9747 337.43 57.0448C335.076 58.1375 332.959 57.2363 331.236 55.5691C328.32 52.7417 326.788 49.3172 327.779 45.2168C328.703 41.4431 332.104 40.1928 335.347 42.3556C338.578 44.5184 339.952 47.7289 340.324 51.3561L340.313 51.3448Z" fill="#B29F2C"/>
<path d="M317.937 10.7916C327.25 15.6242 331.248 23.9264 328.669 33.8619C326.788 30.2121 325.032 26.7876 323.275 23.3744C323.151 23.4194 323.016 23.4758 322.892 23.5208C324.097 27.1706 325.291 30.8317 326.529 34.5716C318.771 32.1609 314.154 19.3416 317.937 10.7804V10.7916Z" fill="#91993F"/>
<path d="M330.054 34.8194C331.327 30.8091 332.464 27.272 333.59 23.7236C333.489 23.6673 333.376 23.6109 333.275 23.5546C332.633 24.6924 332.002 25.8414 331.293 27.103C330.606 24.6924 329.919 22.4619 329.345 20.1977C329.243 19.7809 329.401 19.1951 329.649 18.8121C331.878 15.3539 334.851 12.7067 338.5 10.7804C342.081 18.5981 339.558 29.4574 330.054 34.8194Z" fill="#91993F"/>
<path d="M326.665 45.014C326.101 48.7088 327.002 52.0769 329.322 55.0734C329.536 55.355 329.57 55.9633 329.423 56.3125C328.297 59.14 324.818 59.8722 322.689 57.7657C319.807 54.9157 319.694 48.8665 322.464 45.9489C323.647 44.6985 324.863 44.4057 326.653 45.014H326.665Z" fill="#B29F2C"/>
<path d="M314.357 70.0893C313.816 70.0893 313.354 69.9654 313.005 69.7401C312.577 69.4584 312.262 68.9966 312.071 68.3658L311.98 68.0842L311.834 68.332C311.631 68.6699 311.361 68.9403 311.023 69.1431C310.685 69.3458 310.246 69.4698 309.74 69.5148C309.616 69.5148 309.492 69.526 309.379 69.526C308.782 69.526 308.321 69.3796 308.005 69.0755C307.634 68.715 307.442 68.1968 307.442 67.5209C307.442 67.1154 307.532 66.7099 307.713 66.3043C307.893 65.9101 308.197 65.5158 308.625 65.1328C309.053 64.7498 309.649 64.3893 310.393 64.0627L311.755 63.4656L311.834 62.7221L312.059 62.4743L313.839 62.3166L313.962 65.989C313.962 66.5071 314.041 66.845 314.199 67.014C314.334 67.1605 314.559 67.228 314.886 67.228H315.122L315.347 67.2506V69.7063C315.347 69.9091 315.269 69.9991 315.066 70.0104L314.728 70.0442C314.593 70.0555 314.469 70.0668 314.345 70.0668L314.357 70.0893ZM310.742 65.7186C310.438 65.8312 310.201 65.9664 310.032 66.1241C309.841 66.2931 309.74 66.4846 309.74 66.6874C309.74 66.8901 309.818 67.0704 309.976 67.183C310.1 67.2731 310.258 67.3182 310.449 67.3182C310.787 67.2957 311.001 67.2281 311.192 67.1154C311.384 67.0028 311.541 66.845 311.665 66.6535C311.789 66.4508 311.845 66.203 311.845 65.9101V65.3018L310.731 65.7186H310.742ZM311.823 61.3141C311.823 61.3141 311.722 61.2915 311.688 61.2577L310.877 60.5143V60.1763L311.699 59.2977L312.037 59.2639L312.825 59.9848L313.805 59.1174L314.131 59.0836L314.942 59.8271V60.1763L314.143 61.055L313.805 61.0775L313.016 60.3678L312.037 61.2352L311.834 61.3141H311.823Z" fill="white"/>
<path d="M315.032 70.0328V67.532C315.032 67.4419 315.043 67.3743 315.1 67.318L315.336 67.2279C315.606 67.2053 315.82 67.1152 315.967 66.9575C316.124 66.7998 316.192 66.552 316.192 66.2253C316.192 66.1464 316.192 66.0563 316.17 65.9549L316.124 65.6733L315.911 64.6257C315.877 64.468 315.888 64.3554 315.944 64.2878C316.001 64.2089 316.091 64.1526 316.226 64.1188L317.69 63.6795C317.746 63.6795 317.802 63.6795 317.847 63.6795C318.039 63.6795 318.129 63.747 318.174 63.9723L318.478 65.5156C318.523 65.7297 318.557 65.9324 318.579 66.1352C318.602 66.338 318.613 66.5407 318.613 66.7322C318.613 67.6334 318.377 68.3769 317.915 68.9739C317.465 69.5597 316.766 69.8976 315.843 69.9765L315.077 70.0441H315.043L315.032 70.0328ZM316.913 62.6206C316.845 62.6206 316.8 62.598 316.755 62.5642L315.888 61.7757V61.4152L316.755 60.4803L316.98 60.3789L317.949 61.2238C318.118 61.3815 318.084 61.4941 317.983 61.5955L317.115 62.5304L316.913 62.6093V62.6206Z" fill="white"/>
<path d="M320.933 72.7138C320.741 72.7138 320.584 72.7026 320.46 72.6575C320.37 72.635 320.246 72.5561 320.246 72.2407V70.7087C320.246 70.5172 320.291 70.382 320.381 70.3031C320.449 70.2468 320.606 70.168 320.944 70.1342L322.768 69.9765C323.185 69.9427 323.534 69.8638 323.827 69.7625C324.12 69.6611 324.367 69.4808 324.548 69.2555L324.739 69.019L323.207 69.1542C323.084 69.1654 322.949 69.1767 322.836 69.1767C322.397 69.1767 322.014 69.0979 321.687 68.9514C321.271 68.7599 320.955 68.4783 320.73 68.1066C320.516 67.7236 320.404 67.273 320.404 66.7661C320.404 66.3605 320.471 65.9437 320.606 65.5382C320.73 65.1326 320.933 64.7609 321.192 64.423C321.451 64.0963 321.766 63.8146 322.138 63.5894C322.509 63.3753 322.949 63.2402 323.433 63.1951C323.545 63.1951 323.658 63.1838 323.771 63.1838C324.502 63.1838 325.111 63.4091 325.606 63.8597C326.169 64.3779 326.507 65.1439 326.597 66.1352L327.385 66.1915L327.453 68.7036C327.453 68.9063 327.374 68.9852 327.171 69.0077L326.451 69.0753C326.068 70.1905 325.617 71.0016 324.998 71.5761C324.379 72.1506 323.568 72.4885 322.566 72.5786L321.349 72.6913C321.203 72.7025 321.057 72.7138 320.933 72.7138ZM323.106 65.4255C322.926 65.4368 322.78 65.4818 322.633 65.5607C322.487 65.6395 322.385 65.7297 322.307 65.8423C322.228 65.9663 322.183 66.0901 322.183 66.2253C322.183 66.5407 322.363 66.6759 322.521 66.721C322.656 66.766 322.813 66.7885 322.982 66.7885L324.536 66.6421C324.491 66.0676 324.255 65.7747 323.962 65.617C323.703 65.4819 323.455 65.4143 323.219 65.4143H323.106V65.4255Z" fill="white"/>
<path d="M327.126 69.0191L327.115 66.5182L327.397 66.2141L331.383 65.8649L331.439 68.3657L331.158 68.6699L327.16 69.0303L327.126 69.0191Z" fill="white"/>
<path d="M331.113 68.6699L331.101 66.1691L331.383 65.865L335.358 65.5045L335.425 68.0166L335.144 68.3207L331.146 68.6699H331.113Z" fill="white"/>
<path d="M335.088 68.3205V65.8198C335.088 65.617 335.166 65.5269 335.358 65.5156C335.741 65.4818 335.977 65.3579 336.101 65.1551C336.214 64.9636 336.27 64.682 336.27 64.2878V63.0937C336.27 62.8121 336.405 62.767 336.552 62.7557L338.162 62.6206C338.297 62.6206 338.398 62.6544 338.398 62.8909V64.085C338.398 64.513 338.488 64.7947 338.669 64.9524C338.815 65.0876 339.04 65.1551 339.333 65.1551H339.603L339.66 67.6559C339.66 67.8587 339.581 67.9376 339.378 67.9601C339.277 67.9601 339.175 67.9713 339.074 67.9713C338.736 67.9713 338.41 67.915 338.106 67.8136C337.734 67.6785 337.43 67.4194 337.205 67.0364L337.081 66.8111L336.979 67.0477C336.777 67.5095 336.518 67.8249 336.202 68.0051C335.865 68.1966 335.516 68.298 335.144 68.3318H335.121H335.088V68.3205ZM336.259 61.573C336.259 61.573 336.169 61.5504 336.124 61.5166L335.313 60.7731V60.4352L336.135 59.5566L336.473 59.5228L337.261 60.2437L338.241 59.3763L338.567 59.3425L339.378 60.086V60.4352L338.578 61.3139L338.241 61.3364L337.452 60.6267L336.473 61.4941L336.27 61.573H336.259Z" fill="white"/>
<path d="M339.873 70.7537C339.817 70.7537 339.761 70.7425 339.716 70.7087L338.95 70.0102V69.7061L339.727 68.8725L340.031 68.8387L340.718 69.4808L341.608 68.7148L341.889 68.681L342.655 69.3794V69.6948L341.889 70.5284L341.596 70.551L340.898 69.9314L340.02 70.6974L339.862 70.765L339.873 70.7537ZM339.344 67.9375V65.4368C339.344 65.234 339.412 65.1439 339.614 65.1326C340.132 65.0876 340.459 64.9636 340.639 64.7496C340.819 64.5356 340.898 64.2089 340.898 63.7583C340.898 63.5105 340.876 63.2401 340.831 62.9585L340.729 62.2601C340.729 62.1925 340.707 62.0686 340.763 62.0235C340.831 61.9672 340.909 61.9334 340.988 61.9109L342.418 61.5054H342.677C342.745 61.5617 342.79 61.6405 342.813 61.7419C342.846 61.8658 342.891 62.0348 342.925 62.2714C342.97 62.5079 343.004 62.7445 343.026 62.9923C343.06 63.2289 343.072 63.4204 343.072 63.5668C343.072 64.4117 342.948 65.1664 342.689 65.7972C342.441 66.4168 342.036 66.9237 341.495 67.2954C340.954 67.6672 340.234 67.8812 339.367 67.9488H339.344H339.31L339.344 67.9375Z" fill="white"/>
<path d="M343.567 70.8439C343.466 70.8439 343.398 70.8214 343.364 70.7764C343.308 70.72 343.286 70.6299 343.286 70.5172V68.7486C343.286 68.6022 343.342 68.5346 343.387 68.5009C343.477 68.4333 343.578 68.3995 343.725 68.3882C344.434 68.3206 344.873 68.1967 345.211 68.0052C345.549 67.8024 345.797 67.5321 345.943 67.1829C346.089 66.845 346.157 66.4507 346.157 65.9888C346.157 65.5608 346.101 65.0764 345.999 64.5131C345.898 63.9611 345.763 63.4204 345.616 62.891C345.571 62.6544 345.605 62.5531 345.639 62.508C345.695 62.4291 345.797 62.3728 345.954 62.3165L347.429 61.8321L347.711 61.8096C347.711 61.8096 347.801 61.8884 347.846 62.0574C348.015 62.6657 348.161 63.3078 348.285 64.0062C348.409 64.6934 348.465 65.3805 348.465 66.0339C348.465 66.89 348.297 67.6672 347.947 68.3431C347.61 69.019 347.114 69.5822 346.472 70.0103C345.83 70.4384 345.042 70.6862 344.141 70.7764L343.59 70.8214L343.567 70.8439ZM346.27 60.8408C346.202 60.8408 346.157 60.8295 346.112 60.7845L345.245 59.9959V59.6355L346.112 58.7005L346.326 58.5991L347.294 59.444C347.463 59.6017 347.429 59.7031 347.328 59.8157L346.461 60.7507L346.258 60.8296L346.27 60.8408Z" fill="white"/>
<path d="M148.879 143.378C148.992 143.468 149.127 143.513 149.273 143.513C149.42 143.513 149.543 143.445 149.634 143.333L150.692 142.071C150.928 141.812 150.895 141.553 150.591 141.294L149.318 140.212C149.206 140.122 149.082 140.077 148.947 140.088C148.811 140.1 148.688 140.167 148.598 140.28L147.55 141.575C147.438 141.688 147.393 141.812 147.404 141.958C147.415 142.094 147.483 142.218 147.618 142.33L148.879 143.378Z" fill="white"/>
<path d="M157.291 146.487C157.043 145.665 156.75 144.808 156.413 143.941C156.3 143.659 156.176 143.479 156.03 143.423C155.883 143.355 155.692 143.366 155.455 143.457L153.991 144.009C153.552 144.166 153.417 144.459 153.575 144.876C153.879 145.687 154.127 146.431 154.352 147.106C154.566 147.794 154.701 148.402 154.757 148.931C154.881 150.069 154.757 151.004 154.397 151.736C154.036 152.468 153.496 153.032 152.787 153.415C152.066 153.809 151.233 154.034 150.264 154.124C148.857 154.248 147.708 153.978 146.818 153.291C145.929 152.604 145.433 151.601 145.309 150.261C145.276 149.844 145.276 149.359 145.309 148.796C145.354 148.233 145.456 147.692 145.613 147.197C145.681 146.982 145.692 146.814 145.636 146.69C145.58 146.566 145.399 146.476 145.084 146.419L143.812 146.194C143.586 146.149 143.406 146.194 143.294 146.318C143.181 146.453 143.057 146.69 142.933 147.05C142.776 147.591 142.652 148.222 142.562 148.976C142.472 149.72 142.46 150.407 142.517 151.049C142.652 152.48 143.057 153.696 143.744 154.71C144.431 155.724 145.343 156.467 146.48 156.941C147.618 157.414 148.935 157.594 150.433 157.447C151.615 157.335 152.685 157.064 153.631 156.614C154.577 156.163 155.377 155.566 156.041 154.823C156.705 154.079 157.178 153.223 157.482 152.243C157.786 151.274 157.876 150.204 157.775 149.055C157.696 148.177 157.527 147.32 157.28 146.498L157.291 146.487Z" fill="white"/>
<path d="M174.126 139.965C174.261 140.077 174.385 140.122 174.531 140.111C174.666 140.1 174.779 140.032 174.858 139.931L175.916 138.714C176.029 138.579 176.063 138.444 176.051 138.297C176.029 138.151 175.95 138.027 175.826 137.937L174.587 136.934C174.486 136.822 174.373 136.765 174.238 136.788C174.103 136.799 173.979 136.867 173.867 137.002L172.853 138.207C172.763 138.331 172.718 138.466 172.729 138.59C172.741 138.725 172.808 138.838 172.921 138.951L174.126 139.965Z" fill="white"/>
<path d="M178.045 139.604C178.157 139.694 178.281 139.739 178.427 139.75C178.562 139.75 178.686 139.694 178.776 139.559L179.779 138.354C179.891 138.218 179.936 138.083 179.925 137.937C179.914 137.79 179.846 137.666 179.711 137.576L178.472 136.574C178.337 136.461 178.213 136.416 178.09 136.427C177.966 136.439 177.864 136.506 177.774 136.641L176.716 137.858C176.626 137.971 176.581 138.106 176.592 138.252C176.603 138.399 176.671 138.511 176.783 138.613L178.045 139.615V139.604Z" fill="white"/>
<path d="M183.123 152.896C183.011 152.806 182.887 152.761 182.763 152.772C182.639 152.784 182.515 152.851 182.402 152.964L181.423 154.147C181.333 154.259 181.288 154.383 181.31 154.518C181.333 154.654 181.389 154.766 181.49 154.868L182.673 155.848C182.797 155.938 182.932 155.983 183.078 155.983C183.213 155.983 183.326 155.915 183.405 155.814L184.418 154.631C184.508 154.519 184.542 154.383 184.531 154.237C184.508 154.09 184.441 153.978 184.328 153.876L183.146 152.896H183.123Z" fill="white"/>
<path d="M186.682 152.57C186.569 152.48 186.456 152.435 186.332 152.446C186.209 152.446 186.107 152.513 186.006 152.626L184.97 153.809C184.88 153.921 184.835 154.045 184.857 154.181C184.88 154.316 184.936 154.44 185.037 154.53L186.265 155.51C186.378 155.611 186.501 155.645 186.625 155.645C186.76 155.645 186.862 155.589 186.963 155.476L187.943 154.293C188.033 154.181 188.067 154.045 188.055 153.899C188.033 153.752 187.965 153.64 187.853 153.538L186.67 152.558L186.682 152.57Z" fill="white"/>
<path d="M185.037 149.934C185.871 149.337 186.411 148.548 186.682 147.557C186.952 146.566 186.986 145.417 186.794 144.099C186.749 143.738 186.67 143.355 186.569 142.961C186.468 142.567 186.377 142.184 186.276 141.834C186.175 141.485 186.073 141.181 185.983 140.922C185.916 140.685 185.803 140.494 185.657 140.359C185.51 140.212 185.319 140.179 185.06 140.257L183.619 140.697C183.438 140.753 183.303 140.843 183.213 140.967C183.134 141.091 183.134 141.305 183.236 141.587C183.348 142.026 183.472 142.488 183.619 142.961C183.765 143.434 183.878 143.885 183.956 144.335C184.114 145.27 184.047 146.025 183.754 146.577C183.461 147.129 182.819 147.456 181.828 147.546L181.592 147.568L181.231 147.602C180.375 147.681 179.7 147.557 179.227 147.242C178.743 146.926 178.461 146.25 178.371 145.236L178.146 142.736C178.101 142.285 177.876 142.082 177.47 142.116L175.927 142.263C175.511 142.296 175.331 142.544 175.376 142.995L175.601 145.496C175.691 146.487 175.567 147.197 175.229 147.591C174.891 147.996 174.351 148.233 173.619 148.3L173.36 148.323L171.479 148.492C171.209 146.431 170.601 144.91 169.655 143.919C168.709 142.916 167.448 142.499 165.849 142.646C165.072 142.713 164.396 142.916 163.822 143.243C163.248 143.569 162.775 143.986 162.403 144.504C162.032 145.011 161.761 145.586 161.592 146.205C161.424 146.825 161.367 147.467 161.435 148.12C161.525 149.044 161.806 149.833 162.291 150.475C162.775 151.117 163.428 151.579 164.25 151.871C165.072 152.164 166.029 152.254 167.11 152.153L169.092 151.973C168.912 153.065 168.428 153.91 167.617 154.53C166.817 155.138 165.691 155.51 164.25 155.645L162.189 155.837C161.851 155.87 161.604 155.949 161.457 156.084C161.311 156.22 161.255 156.411 161.277 156.67L161.424 158.292C161.457 158.619 161.581 158.833 161.806 158.934C162.032 159.036 162.358 159.07 162.786 159.025L164.284 158.889C166.435 158.698 168.101 158.033 169.306 156.918C170.5 155.803 171.243 154.136 171.525 151.928L173.281 151.77C174.092 151.691 174.835 151.466 175.533 151.094C176.232 150.711 176.727 150.069 177.042 149.134C177.583 149.956 178.247 150.486 179.035 150.745C179.824 151.004 180.657 151.094 181.535 151.015C183.044 150.891 184.215 150.531 185.049 149.934H185.037ZM166.784 149.078C165.905 149.157 165.207 149.078 164.667 148.841C164.137 148.605 163.845 148.188 163.788 147.58C163.755 147.275 163.811 146.971 163.935 146.667C164.059 146.374 164.284 146.115 164.577 145.89C164.881 145.676 165.263 145.541 165.748 145.496C166.592 145.417 167.279 145.665 167.82 146.239C168.36 146.814 168.743 147.692 168.968 148.864L166.772 149.067L166.784 149.078Z" fill="white"/>
<path d="M192.12 138.917C192.233 139.007 192.368 139.052 192.515 139.052C192.661 139.052 192.785 138.984 192.875 138.872L193.933 137.61C194.17 137.351 194.136 137.092 193.832 136.833L192.56 135.751C192.447 135.661 192.323 135.616 192.188 135.627C192.053 135.639 191.94 135.706 191.839 135.819L190.792 137.114C190.679 137.227 190.634 137.351 190.645 137.497C190.657 137.633 190.735 137.757 190.859 137.869L192.12 138.917Z" fill="white"/>
<path d="M203.73 129.973C203.719 129.804 203.652 129.669 203.539 129.567C203.426 129.466 203.28 129.421 203.089 129.432L201.467 129.578C201.298 129.59 201.163 129.669 201.062 129.781C200.96 129.905 200.915 130.052 200.938 130.221L202.075 142.736C202.143 143.524 202.12 144.144 201.996 144.572C201.872 145.011 201.636 145.327 201.287 145.518C200.938 145.71 200.487 145.834 199.913 145.89C199.913 145.89 199.902 145.89 199.89 145.89C199.89 145.89 199.868 145.89 199.857 145.89L199.361 145.935C198.933 145.969 198.528 145.957 198.134 145.89C197.751 145.822 197.402 145.665 197.098 145.417C196.794 145.169 196.569 144.797 196.4 144.313L195.409 141.463C195.364 141.328 195.307 141.204 195.251 141.102C195.195 140.99 195.105 140.922 194.992 140.877C194.879 140.832 194.722 140.843 194.508 140.922L193.145 141.384C192.875 141.474 192.706 141.598 192.627 141.756C192.56 141.913 192.56 142.105 192.627 142.341L193.28 144.335C193.494 144.944 193.675 145.552 193.832 146.171C193.99 146.791 194.102 147.388 194.147 147.974C194.294 149.551 194.024 150.824 193.348 151.793C192.672 152.75 191.501 153.313 189.835 153.46L189.114 153.527C188.877 153.55 188.686 153.617 188.562 153.753C188.438 153.877 188.382 154.046 188.404 154.271L188.562 155.994C188.585 156.22 188.652 156.389 188.776 156.513C188.9 156.625 189.08 156.681 189.317 156.659L190.319 156.569C191.591 156.456 192.661 156.163 193.517 155.69C194.373 155.217 195.06 154.631 195.566 153.899C196.073 153.178 196.422 152.378 196.625 151.488C196.816 150.598 196.895 149.697 196.85 148.762C197.03 148.988 197.391 149.157 197.954 149.258C198.505 149.359 199.136 149.382 199.823 149.326C200.893 149.224 201.771 149.021 202.458 148.706C203.145 148.391 203.685 147.951 204.079 147.377C204.474 146.802 204.721 146.093 204.834 145.248C204.947 144.403 204.958 143.434 204.856 142.33L203.73 129.95V129.973Z" fill="white"/>
<path d="M211.579 128.835C211.467 128.734 211.32 128.688 211.129 128.711L209.507 128.857C209.338 128.869 209.203 128.948 209.102 129.06C209 129.184 208.955 129.331 208.967 129.5L210.633 147.782C210.645 147.951 210.712 148.086 210.836 148.188C210.96 148.289 211.106 148.334 211.275 148.323L212.897 148.176C213.088 148.154 213.223 148.086 213.325 147.962C213.415 147.839 213.46 147.692 213.437 147.523L211.771 129.24C211.759 129.071 211.692 128.936 211.579 128.835Z" fill="white"/>
<path d="M230.982 135.966C231.117 136.078 231.252 136.123 231.387 136.112C231.522 136.101 231.635 136.033 231.713 135.921L232.772 134.704C232.885 134.58 232.918 134.434 232.907 134.287C232.885 134.141 232.806 134.028 232.682 133.927L231.443 132.924C231.342 132.811 231.229 132.766 231.094 132.778C230.959 132.789 230.835 132.857 230.723 132.992L229.72 134.208C229.63 134.344 229.585 134.467 229.596 134.591C229.608 134.715 229.675 134.839 229.788 134.952L230.993 135.954L230.982 135.966Z" fill="white"/>
<path d="M234.9 135.616C235.013 135.706 235.137 135.763 235.283 135.763C235.418 135.763 235.531 135.706 235.632 135.571L236.634 134.366C236.747 134.242 236.792 134.096 236.781 133.949C236.77 133.803 236.702 133.69 236.567 133.589L235.328 132.586C235.193 132.485 235.069 132.428 234.945 132.44C234.821 132.451 234.72 132.519 234.63 132.654L233.572 133.87C233.481 133.983 233.436 134.118 233.448 134.265C233.459 134.411 233.526 134.524 233.639 134.625L234.9 135.628V135.616Z" fill="white"/>
<path d="M250.147 143.997C250.981 143.4 251.521 142.612 251.791 141.62C252.05 140.64 252.095 139.48 251.904 138.162C251.859 137.802 251.78 137.43 251.679 137.024C251.578 136.619 251.487 136.247 251.375 135.898C251.273 135.538 251.172 135.233 251.082 134.986C251.003 134.749 250.902 134.558 250.755 134.422C250.609 134.276 250.418 134.242 250.159 134.321L248.717 134.76C248.526 134.817 248.391 134.907 248.312 135.031C248.222 135.155 248.233 135.369 248.334 135.65C248.447 136.089 248.571 136.551 248.717 137.024C248.864 137.498 248.976 137.959 249.055 138.399C249.213 139.334 249.145 140.088 248.852 140.64C248.56 141.192 247.918 141.519 246.927 141.609L246.69 141.632L246.307 141.666C245.722 141.722 245.226 141.677 244.832 141.542C244.427 141.406 244.123 141.136 243.898 140.742C243.684 140.348 243.537 139.762 243.458 138.985L243.256 136.788C243.211 136.36 242.986 136.157 242.58 136.202L241.004 136.349C240.587 136.382 240.407 136.619 240.441 137.047L240.609 138.827C240.722 140.066 240.463 140.956 239.844 141.508C239.224 142.06 238.087 142.409 236.454 142.555L230.655 143.085C229.247 143.22 228.099 143.13 227.209 142.815C226.32 142.51 225.835 141.823 225.734 140.776C225.689 140.325 225.723 139.886 225.813 139.446C225.903 139.007 226.016 138.556 226.139 138.095C226.207 137.847 226.207 137.678 226.139 137.588C226.072 137.498 225.959 137.441 225.802 137.419L224.281 137.036C224.067 136.968 223.898 136.968 223.786 137.036C223.673 137.103 223.583 137.227 223.538 137.407C222.986 138.962 222.761 140.325 222.874 141.474C222.986 142.657 223.347 143.659 223.977 144.459C224.597 145.259 225.509 145.833 226.68 146.194C227.851 146.543 229.304 146.645 231.027 146.487L236.105 146.025C237.242 145.924 238.211 145.755 239.01 145.518C239.81 145.282 240.474 144.944 241.004 144.516C241.522 144.087 241.927 143.536 242.197 142.871C242.693 143.795 243.312 144.414 244.055 144.73C244.798 145.045 245.654 145.158 246.634 145.067C248.154 144.944 249.325 144.583 250.147 143.986V143.997Z" fill="white"/>
<path d="M251.791 146.633C251.679 146.543 251.566 146.498 251.442 146.509C251.319 146.521 251.217 146.577 251.116 146.701L250.08 147.884C249.99 147.996 249.945 148.12 249.967 148.255C249.99 148.391 250.046 148.503 250.147 148.605L251.386 149.585C251.499 149.675 251.623 149.72 251.746 149.72C251.882 149.72 251.983 149.664 252.084 149.551L253.064 148.368C253.154 148.255 253.199 148.12 253.177 147.985C253.154 147.839 253.086 147.726 252.974 147.625L251.791 146.645V146.633Z" fill="white"/>
<path d="M248.233 146.96C248.12 146.87 247.997 146.825 247.873 146.836C247.749 146.847 247.625 146.915 247.512 147.028L246.533 148.21C246.443 148.323 246.398 148.447 246.42 148.582C246.443 148.717 246.499 148.841 246.6 148.931L247.783 149.911C247.918 150.001 248.042 150.047 248.188 150.047C248.323 150.047 248.436 149.979 248.515 149.878L249.528 148.695C249.618 148.582 249.652 148.447 249.641 148.312C249.618 148.165 249.551 148.041 249.438 147.951L248.256 146.971L248.233 146.96Z" fill="white"/>
<path d="M257.737 132.924C257.85 133.014 257.974 133.059 258.131 133.059C258.278 133.059 258.402 132.992 258.492 132.879L259.55 131.617C259.787 131.358 259.753 131.099 259.46 130.84L258.188 129.759C258.075 129.669 257.951 129.623 257.816 129.635C257.681 129.646 257.568 129.714 257.467 129.826L256.42 131.122C256.307 131.234 256.262 131.358 256.273 131.505C256.285 131.64 256.363 131.764 256.487 131.876L257.748 132.924H257.737Z" fill="white"/>
<path d="M261.588 138.737C261.284 137.644 260.969 136.596 260.609 135.628C260.485 135.256 260.361 135.031 260.215 134.952C260.068 134.873 259.877 134.873 259.64 134.963L258.21 135.481C257.94 135.571 257.771 135.706 257.715 135.875C257.647 136.044 257.681 136.303 257.793 136.641C258.131 137.531 258.435 138.388 258.694 139.21C258.953 140.032 259.122 140.877 259.201 141.733C259.302 142.815 259.235 143.772 259.021 144.594C258.796 145.417 258.368 146.081 257.737 146.6C257.095 147.106 256.217 147.411 255.08 147.523L254.258 147.602C254.021 147.625 253.841 147.692 253.706 147.827C253.582 147.951 253.526 148.131 253.548 148.346L253.706 150.069C253.728 150.294 253.796 150.463 253.92 150.587C254.044 150.7 254.224 150.756 254.472 150.734L255.71 150.621C257.332 150.475 258.638 149.99 259.652 149.179C260.665 148.368 261.374 147.332 261.78 146.059C262.196 144.786 262.332 143.389 262.185 141.857C262.095 140.877 261.904 139.841 261.6 138.737H261.588Z" fill="white"/>
<path d="M282.038 149.382C281.948 149.28 281.835 149.247 281.7 149.258C281.576 149.269 281.464 149.337 281.362 149.449L280.326 150.666C280.248 150.756 280.214 150.88 280.225 151.027C280.236 151.173 280.293 151.286 280.383 151.364L281.621 152.367C281.734 152.446 281.858 152.48 281.993 152.48C282.128 152.48 282.241 152.423 282.32 152.333L283.322 151.128C283.412 151.015 283.457 150.88 283.434 150.745C283.412 150.598 283.344 150.486 283.232 150.407L282.027 149.404L282.038 149.382Z" fill="white"/>
<path d="M278.48 149.708C278.389 149.607 278.266 149.573 278.13 149.585C277.995 149.596 277.883 149.663 277.781 149.776L276.779 150.981C276.7 151.072 276.667 151.195 276.678 151.342C276.689 151.488 276.745 151.601 276.835 151.68L278.04 152.694C278.153 152.773 278.277 152.806 278.412 152.806C278.547 152.806 278.66 152.75 278.739 152.66L279.775 151.443C279.865 151.331 279.91 151.195 279.887 151.06C279.865 150.914 279.797 150.801 279.684 150.722L278.48 149.72V149.708Z" fill="white"/>
<path d="M297.274 128.531C296.756 127.562 296.069 126.83 295.236 126.323C294.402 125.816 293.445 125.613 292.364 125.715C291.52 125.793 290.765 126.075 290.078 126.571C289.391 127.066 288.873 127.697 288.502 128.474C288.13 129.24 287.972 130.085 288.04 130.998C288.119 131.854 288.355 132.586 288.761 133.206C289.166 133.814 289.707 134.276 290.405 134.58C291.103 134.884 291.891 134.985 292.792 134.907C293.603 134.828 294.323 134.614 294.977 134.253C295.337 134.05 295.641 133.814 295.9 133.555C295.956 134.163 295.956 134.693 295.9 135.121C295.787 135.864 295.472 136.416 294.943 136.765C294.425 137.126 293.648 137.351 292.634 137.441L287.015 137.959L281.238 138.489C280.878 138.523 280.72 138.725 280.754 139.108L280.946 141.192C280.979 141.575 281.182 141.744 281.542 141.711L282.961 141.575C283.355 141.542 283.671 141.62 283.919 141.812C284.166 142.003 284.301 142.285 284.335 142.646C284.391 143.243 284.087 143.716 283.412 144.042C282.736 144.369 281.801 144.594 280.597 144.696L278.637 144.876C277.5 144.977 276.565 144.887 275.822 144.594C275.079 144.313 274.504 143.873 274.122 143.276C273.727 142.691 273.502 142.003 273.423 141.204C273.367 140.584 273.401 139.987 273.536 139.401C273.66 138.815 273.885 138.173 274.2 137.464C274.313 137.205 274.358 137.002 274.324 136.855C274.291 136.698 274.144 136.596 273.874 136.529L272.545 136.157C272.354 136.112 272.185 136.112 272.038 136.157C271.892 136.213 271.779 136.36 271.678 136.596C271.205 137.52 270.879 138.432 270.698 139.322C270.518 140.212 270.462 141.057 270.541 141.846C270.631 142.792 270.856 143.671 271.239 144.493C271.622 145.304 272.14 146.014 272.793 146.599C273.457 147.185 274.268 147.625 275.236 147.917C276.205 148.21 277.331 148.3 278.603 148.188L280.765 147.996C281.88 147.895 282.837 147.681 283.648 147.354C284.448 147.027 285.101 146.622 285.596 146.138C286.092 145.653 286.441 145.101 286.644 144.482C286.846 143.862 286.914 143.209 286.858 142.499C286.824 142.082 286.7 141.711 286.508 141.418L286.993 141.373C286.993 141.373 287.06 141.35 287.105 141.35C287.162 141.35 287.195 141.35 287.252 141.35L292.465 140.877C293.828 140.753 294.909 140.438 295.731 139.931C296.553 139.424 297.172 138.759 297.578 137.959C297.983 137.148 298.242 136.236 298.332 135.2C298.422 134.163 298.4 133.07 298.276 131.921C298.152 130.615 297.837 129.477 297.319 128.508L297.274 128.531ZM294.211 131.719C293.693 131.933 293.186 132.057 292.713 132.102C292.128 132.158 291.61 132.057 291.148 131.82C290.686 131.572 290.439 131.155 290.382 130.57C290.36 130.299 290.416 129.995 290.551 129.68C290.686 129.364 290.9 129.094 291.204 128.88C291.508 128.666 291.88 128.531 292.33 128.497C292.882 128.452 293.366 128.531 293.794 128.767C294.222 129.004 294.582 129.308 294.875 129.702C295.168 130.085 295.393 130.491 295.528 130.919C295.157 131.246 294.718 131.516 294.2 131.73L294.211 131.719Z" fill="white"/>
<path d="M291.734 123.067C291.846 123.157 291.97 123.203 292.128 123.203C292.274 123.203 292.398 123.135 292.488 123.034L293.547 121.772C293.783 121.513 293.749 121.254 293.445 121.006L292.173 119.924C292.06 119.834 291.936 119.789 291.801 119.801C291.666 119.812 291.553 119.879 291.452 119.992L290.405 121.287C290.292 121.4 290.247 121.524 290.258 121.671C290.27 121.806 290.337 121.93 290.472 122.042L291.734 123.101V123.067Z" fill="white"/>
<path d="M313.838 131.11L316.901 130.829C317.645 130.761 318.196 130.536 318.568 130.153C318.94 129.77 319.097 129.263 319.041 128.632C319.007 128.249 318.895 127.911 318.703 127.596C318.512 127.28 318.118 126.976 317.509 126.661L316.169 125.951C316.079 125.906 316.001 125.861 315.933 125.816C315.865 125.771 315.832 125.703 315.82 125.624C315.809 125.501 315.91 125.354 316.147 125.174L318.23 123.529C318.489 123.338 318.534 123.112 318.354 122.865L317.937 122.279C317.836 122.155 317.735 122.076 317.622 122.065C317.509 122.042 317.363 122.121 317.183 122.267L315.032 124.025C314.694 124.295 314.424 124.577 314.233 124.858C314.041 125.14 313.962 125.467 313.996 125.861C314.019 126.165 314.131 126.424 314.323 126.638C314.514 126.841 314.751 127.021 315.021 127.179L316.665 128.091C316.868 128.193 317.003 128.283 317.07 128.373C317.138 128.452 317.172 128.531 317.183 128.621C317.205 128.914 317.025 129.083 316.631 129.116L313.67 129.387C313.309 129.421 313.14 129.623 313.174 130.006L313.242 130.671C313.275 130.998 313.467 131.144 313.827 131.11H313.838Z" fill="white"/>
<path d="M333.353 139.007C333.241 138.917 333.117 138.872 332.993 138.883C332.869 138.894 332.745 138.962 332.633 139.075L331.631 140.314C331.54 140.426 331.495 140.55 331.507 140.697C331.518 140.843 331.586 140.956 331.698 141.035L332.914 142.071C333.038 142.139 333.173 142.184 333.308 142.173C333.444 142.173 333.567 142.116 333.657 142.026L334.66 140.787C334.772 140.674 334.817 140.539 334.795 140.393C334.772 140.246 334.693 140.134 334.57 140.032L333.353 138.996V139.007Z" fill="white"/>
<path d="M351.889 117.627C352.001 117.717 352.125 117.773 352.272 117.773C352.407 117.773 352.531 117.717 352.621 117.582L353.623 116.376C353.736 116.241 353.781 116.106 353.769 115.959C353.758 115.813 353.679 115.689 353.555 115.599L352.317 114.596C352.182 114.484 352.058 114.439 351.934 114.45C351.81 114.45 351.709 114.529 351.618 114.664L350.56 115.881C350.47 115.993 350.425 116.117 350.436 116.264C350.447 116.41 350.515 116.534 350.628 116.624L351.889 117.627Z" fill="white"/>
<path d="M347.97 117.987C348.105 118.1 348.24 118.145 348.375 118.133C348.51 118.122 348.623 118.055 348.702 117.942L349.76 116.725C349.873 116.59 349.918 116.455 349.896 116.308C349.873 116.162 349.794 116.049 349.67 115.948L348.432 114.945C348.33 114.833 348.218 114.776 348.083 114.799C347.947 114.81 347.824 114.889 347.711 115.013L346.709 116.218C346.619 116.342 346.574 116.477 346.585 116.601C346.596 116.725 346.664 116.849 346.776 116.962L347.981 117.964L347.97 117.987Z" fill="white"/>
<path d="M355.447 123.225C354.929 122.256 354.253 121.524 353.409 121.017C352.576 120.51 351.618 120.307 350.537 120.409C349.693 120.488 348.938 120.769 348.251 121.265C347.565 121.761 347.047 122.391 346.675 123.169C346.303 123.935 346.146 124.78 346.213 125.692C346.292 126.548 346.529 127.292 346.934 127.9C347.339 128.508 347.88 128.97 348.578 129.274C349.276 129.578 350.064 129.68 350.965 129.601C351.776 129.522 352.497 129.308 353.15 128.948C353.51 128.745 353.814 128.508 354.062 128.249C354.118 128.857 354.13 129.387 354.062 129.815C353.949 130.558 353.623 131.11 353.105 131.46C352.587 131.82 351.81 132.045 350.796 132.135L345.177 132.642C344.423 132.71 343.826 132.687 343.387 132.564C342.948 132.44 342.632 132.181 342.418 131.809C342.216 131.426 342.069 130.874 342.013 130.153L340.864 117.514C340.831 117.086 340.594 116.883 340.155 116.928L338.612 117.074C338.196 117.108 338.015 117.345 338.049 117.773L339.198 130.412C339.288 131.46 339.198 132.203 338.883 132.62C338.578 133.048 337.959 133.307 337.024 133.386L336.664 133.42C335.808 133.499 335.133 133.375 334.66 133.059C334.176 132.744 333.894 132.068 333.804 131.054L333.579 128.553C333.545 128.103 333.308 127.9 332.903 127.934L331.36 128.069C330.944 128.103 330.763 128.35 330.797 128.801L331.022 131.302C331.113 132.293 330.989 133.003 330.651 133.397C330.313 133.803 329.773 134.039 329.041 134.107L328.782 134.129C328.782 134.129 328.759 134.129 328.748 134.129C328.748 134.129 328.737 134.129 328.725 134.129C327.948 134.197 327.329 134.174 326.867 134.039C326.406 133.904 326.068 133.645 325.865 133.251C325.651 132.856 325.516 132.282 325.448 131.55L324.3 118.911C324.289 118.742 324.221 118.606 324.12 118.528C324.018 118.437 323.872 118.404 323.68 118.426L321.879 118.595C321.71 118.606 321.575 118.674 321.496 118.775C321.406 118.877 321.372 119.012 321.394 119.192L322.554 131.91C322.656 132.992 322.408 133.758 321.811 134.197C321.214 134.636 320.336 134.918 319.165 135.019L315.347 135.368C314.21 135.47 313.219 135.481 312.375 135.391C311.53 135.301 310.854 135.064 310.348 134.681C309.841 134.298 309.559 133.724 309.492 132.969C309.458 132.541 309.469 132.113 309.559 131.674C309.638 131.246 309.751 130.784 309.875 130.311C309.92 130.119 309.897 129.973 309.796 129.894C309.695 129.804 309.503 129.747 309.244 129.691L308.028 129.466C307.814 129.421 307.656 129.432 307.532 129.5C307.42 129.567 307.307 129.747 307.217 130.029C307.014 130.66 306.868 131.268 306.778 131.888C306.688 132.507 306.665 133.093 306.722 133.656C306.846 135.019 307.251 136.101 307.938 136.912C308.625 137.723 309.593 138.286 310.843 138.59C312.093 138.894 313.613 138.962 315.404 138.793L319.3 138.444C320.539 138.331 321.552 138.083 322.34 137.712C323.129 137.34 323.748 136.81 324.21 136.123C324.581 136.551 325.02 136.889 325.516 137.114C326.023 137.351 326.552 137.497 327.104 137.554C327.655 137.61 328.185 137.621 328.703 137.576C329.514 137.509 330.268 137.283 330.955 136.9C331.653 136.517 332.149 135.875 332.464 134.94C333.004 135.763 333.669 136.292 334.457 136.551C335.245 136.81 336.079 136.9 336.946 136.822C337.79 136.743 338.556 136.517 339.232 136.146C339.919 135.774 340.414 135.121 340.729 134.186C341.27 135.008 341.923 135.537 342.689 135.797C343.454 136.056 344.254 136.146 345.076 136.078C345.121 136.078 345.155 136.056 345.2 136.044C345.256 136.044 345.301 136.044 345.369 136.044L350.582 135.571C351.945 135.447 353.026 135.132 353.848 134.625C354.67 134.118 355.278 133.453 355.695 132.654C356.1 131.843 356.359 130.93 356.438 129.894C356.528 128.857 356.506 127.776 356.393 126.616C356.269 125.309 355.954 124.171 355.436 123.203L355.447 123.225ZM352.384 126.413C351.866 126.627 351.371 126.751 350.887 126.796C350.301 126.852 349.783 126.751 349.321 126.514C348.86 126.267 348.612 125.85 348.556 125.264C348.533 124.994 348.589 124.689 348.724 124.374C348.86 124.059 349.074 123.788 349.378 123.574C349.682 123.36 350.053 123.225 350.492 123.191C351.044 123.146 351.528 123.225 351.956 123.462C352.384 123.698 352.745 124.002 353.037 124.385C353.33 124.78 353.555 125.174 353.69 125.602C353.319 125.929 352.88 126.199 352.362 126.413H352.384Z" fill="white"/>
<path d="M370.39 117.84C370.525 117.953 370.66 117.998 370.796 117.987C370.931 117.976 371.043 117.908 371.122 117.795L372.181 116.579C372.293 116.444 372.338 116.308 372.316 116.162C372.293 116.016 372.226 115.892 372.091 115.802L370.852 114.799C370.751 114.686 370.638 114.63 370.503 114.652C370.368 114.664 370.244 114.731 370.131 114.867L369.129 116.072C369.039 116.207 368.994 116.331 369.005 116.466C369.016 116.59 369.084 116.714 369.197 116.827L370.401 117.829L370.39 117.84Z" fill="white"/>
<path d="M374.309 117.48C374.422 117.57 374.545 117.627 374.692 117.627C374.827 117.627 374.951 117.57 375.041 117.435L376.043 116.23C376.156 116.095 376.201 115.959 376.19 115.813C376.178 115.667 376.099 115.543 375.976 115.452L374.737 114.45C374.602 114.337 374.478 114.292 374.354 114.303C374.23 114.315 374.129 114.382 374.039 114.517L372.98 115.734C372.89 115.847 372.845 115.982 372.856 116.128C372.868 116.275 372.935 116.387 373.048 116.489L374.309 117.491V117.48Z" fill="white"/>
<path d="M425.275 122.696C425.197 121.84 424.938 121.062 424.498 120.364C424.059 119.666 423.451 119.125 422.674 118.731C421.897 118.348 420.94 118.201 419.825 118.303C418.643 118.415 417.494 118.809 416.391 119.508C415.287 120.206 414.285 121.175 413.384 122.425C412.573 123.541 411.909 124.892 411.368 126.458C411.256 126.436 411.154 126.413 411.053 126.391C410.625 126.255 410.31 125.996 410.107 125.613C409.904 125.23 409.78 124.701 409.713 124.014L409.567 122.437C409.533 122.009 409.308 121.817 408.891 121.851L407.348 121.997C406.931 122.031 406.751 122.268 406.785 122.696L406.943 124.476C407.01 125.219 406.999 125.771 406.909 126.143C406.819 126.515 406.605 126.774 406.256 126.92C405.907 127.067 405.389 127.168 404.702 127.236L402.821 127.404C402.337 127.45 401.92 127.461 401.549 127.438C401.188 127.416 400.862 127.337 400.592 127.19C400.321 127.044 400.096 126.785 399.927 126.424C399.871 126.301 399.815 126.143 399.77 125.985L400.209 125.568L401.605 125.444C401.83 125.422 401.999 125.354 402.101 125.219C402.213 125.084 402.258 124.915 402.236 124.712L402.101 123.191C402.078 122.932 402.022 122.752 401.932 122.662C401.842 122.572 401.673 122.527 401.414 122.549L400.254 122.651C399.443 122.73 398.722 122.707 398.08 122.583C397.439 122.471 396.842 122.313 396.29 122.11C395.738 121.907 395.186 121.704 394.635 121.502C394.083 121.299 393.497 121.141 392.889 121.029C392.281 120.916 391.594 120.882 390.84 120.961C390.097 121.029 389.443 121.198 388.869 121.479C388.295 121.761 387.822 122.099 387.439 122.504C387.056 122.91 386.775 123.349 386.595 123.822C386.414 124.284 386.336 124.746 386.381 125.197C386.414 125.613 386.673 125.794 387.158 125.749L388.194 125.658C388.475 125.636 388.655 125.58 388.768 125.489C388.869 125.399 388.993 125.253 389.128 125.028C389.297 124.757 389.522 124.509 389.826 124.307C390.13 124.104 390.536 123.969 391.054 123.924C391.673 123.867 392.236 123.901 392.754 124.014C393.261 124.126 393.756 124.284 394.241 124.487C394.714 124.69 395.22 124.881 395.761 125.073C396.256 125.253 396.819 125.388 397.427 125.489L396.617 126.109C395.614 126.864 394.601 127.427 393.587 127.81C392.574 128.193 391.369 128.452 389.95 128.587L385.513 128.993L378.239 129.657L377.394 129.736C376.572 129.815 375.987 129.702 375.649 129.41C375.311 129.117 375.097 128.497 375.007 127.528L374.343 120.229C374.331 120.071 374.275 119.947 374.163 119.846C374.061 119.744 373.926 119.699 373.768 119.711L372.113 119.857C371.944 119.868 371.798 119.936 371.674 120.049C371.55 120.161 371.505 120.319 371.516 120.499L371.618 121.637L368.926 122.955C367.8 123.496 366.911 124.07 366.246 124.678C365.593 125.298 365.143 125.929 364.906 126.593C364.658 127.258 364.568 127.934 364.636 128.621C364.737 129.77 365.165 130.66 365.92 131.28C366.674 131.91 367.688 132.158 368.983 132.046C369.793 131.967 370.514 131.741 371.145 131.336C371.775 130.942 372.282 130.423 372.654 129.781C372.98 131.066 373.521 131.978 374.286 132.519C375.041 133.059 376.066 133.262 377.361 133.15L378.183 133.071C378.183 133.071 378.216 133.071 378.239 133.059C378.261 133.059 378.284 133.059 378.307 133.059L378.937 133.003L385.423 132.417L389.162 132.079C390.603 131.944 391.842 131.674 392.856 131.257C393.88 130.84 394.747 130.356 395.491 129.793C396.222 129.229 396.887 128.689 397.461 128.148L398.204 127.438C398.463 128.216 398.812 128.846 399.229 129.319C399.792 129.95 400.457 130.367 401.222 130.57C401.999 130.773 402.855 130.818 403.801 130.739L404.601 130.66C404.601 130.66 404.668 130.649 404.702 130.637C404.724 130.637 404.736 130.637 404.758 130.637C405.614 130.559 406.38 130.322 407.055 129.917C407.731 129.522 408.181 128.869 408.418 127.979C408.891 128.801 409.533 129.342 410.344 129.612C411.154 129.871 412.111 129.962 413.215 129.86L417.888 129.432C419.532 129.286 420.94 128.925 422.077 128.362C423.226 127.799 424.07 127.044 424.611 126.086C425.151 125.14 425.365 123.991 425.253 122.673L425.275 122.696ZM371.854 127.562C371.651 128.001 371.347 128.351 370.965 128.621C370.57 128.891 370.097 129.049 369.557 129.105C368.994 129.15 368.521 129.072 368.149 128.835C367.778 128.599 367.575 128.227 367.53 127.731C367.485 127.247 367.654 126.796 368.037 126.357C368.42 125.929 369.005 125.535 369.782 125.185L371.91 124.262L372.091 126.222C372.136 126.684 372.057 127.134 371.854 127.573V127.562ZM421.762 125.061C421.064 125.523 420.028 125.816 418.631 125.94L413.789 126.379C414.172 125.591 414.611 124.836 415.129 124.171C415.76 123.372 416.458 122.707 417.224 122.189C417.99 121.671 418.8 121.367 419.667 121.288C420.557 121.186 421.278 121.321 421.807 121.704C422.348 122.087 422.64 122.583 422.697 123.225C422.764 123.98 422.449 124.588 421.762 125.05V125.061Z" fill="white"/>
</svg>
