<svg width="188" height="35" viewBox="0 0 188 35" fill="none" xmlns="http://www.w3.org/2000/svg">
<path d="M15.8057 4.49213C16.2651 3.0782 18.2655 3.0782 18.7249 4.49213L20.797 10.8696C21.0025 11.5019 21.5918 11.93 22.2566 11.93H28.9623C30.449 11.93 31.0671 13.8325 29.8644 14.7063L24.4394 18.6478C23.9015 19.0386 23.6764 19.7313 23.8819 20.3636L25.954 26.7411C26.4134 28.155 24.7951 29.3308 23.5924 28.4569L18.1674 24.5155C17.6295 24.1247 16.9011 24.1247 16.3632 24.5155L10.9382 28.4569C9.73549 29.3308 8.11718 28.155 8.57659 26.7411L10.6488 20.3636C10.8542 19.7313 10.6291 19.0386 10.0912 18.6478L4.66626 14.7063C3.4635 13.8325 4.08163 11.93 5.56833 11.93H12.274C12.9389 11.93 13.5281 11.5019 13.7336 10.8696L15.8057 4.49213Z" fill="#D3B600"/>
<path d="M54.173 4.49213C54.6324 3.0782 56.6328 3.0782 57.0922 4.49213L59.1644 10.8696C59.3698 11.5019 59.9591 11.93 60.6239 11.93H67.3296C68.8163 11.93 69.4344 13.8325 68.2317 14.7063L62.8067 18.6478C62.2688 19.0386 62.0437 19.7313 62.2492 20.3636L64.3213 26.7411C64.7807 28.155 63.1624 29.3308 61.9597 28.4569L56.5347 24.5155C55.9968 24.1247 55.2684 24.1247 54.7305 24.5155L49.3056 28.4569C48.1028 29.3308 46.4845 28.155 46.9439 26.7411L49.0161 20.3636C49.2215 19.7313 48.9964 19.0386 48.4586 18.6478L43.0336 14.7063C41.8308 13.8325 42.4489 11.93 43.9356 11.93H50.6413C51.3062 11.93 51.8954 11.5019 52.1009 10.8696L54.173 4.49213Z" fill="#D3B600"/>
<path d="M92.5405 4.49213C92.9999 3.0782 95.0002 3.0782 95.4596 4.49213L97.5318 10.8696C97.7372 11.5019 98.3265 11.93 98.9914 11.93H105.697C107.184 11.93 107.802 13.8325 106.599 14.7063L101.174 18.6478C100.636 19.0386 100.411 19.7313 100.617 20.3636L102.689 26.7411C103.148 28.155 101.53 29.3308 100.327 28.4569L94.9021 24.5155C94.3642 24.1247 93.6359 24.1247 93.098 24.5155L87.673 28.4569C86.4702 29.3308 84.8519 28.155 85.3113 26.7411L87.3835 20.3636C87.589 19.7313 87.3639 19.0386 86.826 18.6478L81.401 14.7063C80.1982 13.8325 80.8164 11.93 82.3031 11.93H89.0087C89.6736 11.93 90.2628 11.5019 90.4683 10.8696L92.5405 4.49213Z" fill="#D3B600"/>
<path d="M130.908 4.49213C131.367 3.0782 133.368 3.0782 133.827 4.49213L135.899 10.8696C136.105 11.5019 136.694 11.93 137.359 11.93H144.064C145.551 11.93 146.169 13.8325 144.966 14.7063L139.541 18.6478C139.004 19.0386 138.778 19.7313 138.984 20.3636L141.056 26.7411C141.515 28.155 139.897 29.3308 138.694 28.4569L133.269 24.5155C132.732 24.1247 132.003 24.1247 131.465 24.5155L126.04 28.4569C124.838 29.3308 123.219 28.155 123.679 26.7411L125.751 20.3636C125.956 19.7313 125.731 19.0386 125.193 18.6478L119.768 14.7063C118.566 13.8325 119.184 11.93 120.67 11.93H127.376C128.041 11.93 128.63 11.5019 128.836 10.8696L130.908 4.49213Z" fill="#D3B600"/>
<path d="M169.275 4.49213C169.734 3.0782 171.735 3.0782 172.194 4.49213L174.266 10.8696C174.472 11.5019 175.061 11.93 175.726 11.93H182.432C183.918 11.93 184.536 13.8325 183.334 14.7063L177.909 18.6478C177.371 19.0386 177.146 19.7313 177.351 20.3636L179.423 26.7411C179.883 28.155 178.264 29.3308 177.062 28.4569L171.637 24.5155C171.099 24.1247 170.37 24.1247 169.833 24.5155L164.408 28.4569C163.205 29.3308 161.587 28.155 162.046 26.7411L164.118 20.3636C164.324 19.7313 164.098 19.0386 163.561 18.6478L158.136 14.7063C156.933 13.8325 157.551 11.93 159.038 11.93H165.743C166.408 11.93 166.997 11.5019 167.203 10.8696L169.275 4.49213Z" fill="#D3B600"/>
</svg>
